<?xml version="1.0" encoding="utf-8"?>
<svg xmlns="http://www.w3.org/2000/svg" xmlns:xlink="http://www.w3.org/1999/xlink" width="600" height="400" viewBox="0 0 2400 1600">
<defs>
  <clipPath id="clip020">
    <rect x="0" y="0" width="2400" height="1600"/>
  </clipPath>
</defs>
<path clip-path="url(#clip020)" d="
M0 1600 L2400 1600 L2400 0 L0 0  Z
  " fill="#ffffff" fill-rule="evenodd" fill-opacity="1"/>
<defs>
  <clipPath id="clip021">
    <rect x="480" y="0" width="1681" height="1600"/>
  </clipPath>
</defs>
<path clip-path="url(#clip020)" d="
M262.551 1423.18 L2352.76 1423.18 L2352.76 47.2441 L262.551 47.2441  Z
  " fill="#ffffff" fill-rule="evenodd" fill-opacity="1"/>
<defs>
  <clipPath id="clip022">
    <rect x="262" y="47" width="2091" height="1377"/>
  </clipPath>
</defs>
<polyline clip-path="url(#clip022)" style="stroke:#000000; stroke-linecap:butt; stroke-linejoin:round; stroke-width:2; stroke-opacity:0.1; fill:none" points="
  321.708,1423.18 321.708,47.2441 
  "/>
<polyline clip-path="url(#clip022)" style="stroke:#000000; stroke-linecap:butt; stroke-linejoin:round; stroke-width:2; stroke-opacity:0.1; fill:none" points="
  847.546,1423.18 847.546,47.2441 
  "/>
<polyline clip-path="url(#clip022)" style="stroke:#000000; stroke-linecap:butt; stroke-linejoin:round; stroke-width:2; stroke-opacity:0.1; fill:none" points="
  1373.38,1423.18 1373.38,47.2441 
  "/>
<polyline clip-path="url(#clip022)" style="stroke:#000000; stroke-linecap:butt; stroke-linejoin:round; stroke-width:2; stroke-opacity:0.1; fill:none" points="
  1899.22,1423.18 1899.22,47.2441 
  "/>
<polyline clip-path="url(#clip020)" style="stroke:#000000; stroke-linecap:butt; stroke-linejoin:round; stroke-width:4; stroke-opacity:1; fill:none" points="
  262.551,1423.18 2352.76,1423.18 
  "/>
<polyline clip-path="url(#clip020)" style="stroke:#000000; stroke-linecap:butt; stroke-linejoin:round; stroke-width:4; stroke-opacity:1; fill:none" points="
  321.708,1423.18 321.708,1404.28 
  "/>
<polyline clip-path="url(#clip020)" style="stroke:#000000; stroke-linecap:butt; stroke-linejoin:round; stroke-width:4; stroke-opacity:1; fill:none" points="
  847.546,1423.18 847.546,1404.28 
  "/>
<polyline clip-path="url(#clip020)" style="stroke:#000000; stroke-linecap:butt; stroke-linejoin:round; stroke-width:4; stroke-opacity:1; fill:none" points="
  1373.38,1423.18 1373.38,1404.28 
  "/>
<polyline clip-path="url(#clip020)" style="stroke:#000000; stroke-linecap:butt; stroke-linejoin:round; stroke-width:4; stroke-opacity:1; fill:none" points="
  1899.22,1423.18 1899.22,1404.28 
  "/>
<path clip-path="url(#clip020)" d="M321.708 1454.1 Q318.097 1454.1 316.268 1457.66 Q314.463 1461.2 314.463 1468.33 Q314.463 1475.44 316.268 1479.01 Q318.097 1482.55 321.708 1482.55 Q325.342 1482.55 327.148 1479.01 Q328.976 1475.44 328.976 1468.33 Q328.976 1461.2 327.148 1457.66 Q325.342 1454.1 321.708 1454.1 M321.708 1450.39 Q327.518 1450.39 330.574 1455 Q333.652 1459.58 333.652 1468.33 Q333.652 1477.06 330.574 1481.67 Q327.518 1486.25 321.708 1486.25 Q315.898 1486.25 312.819 1481.67 Q309.764 1477.06 309.764 1468.33 Q309.764 1459.58 312.819 1455 Q315.898 1450.39 321.708 1450.39 Z" fill="#000000" fill-rule="evenodd" fill-opacity="1" /><path clip-path="url(#clip020)" d="M842.198 1481.64 L858.518 1481.64 L858.518 1485.58 L836.573 1485.58 L836.573 1481.64 Q839.235 1478.89 843.819 1474.26 Q848.425 1469.61 849.606 1468.27 Q851.851 1465.74 852.731 1464.01 Q853.634 1462.25 853.634 1460.56 Q853.634 1457.8 851.689 1456.07 Q849.768 1454.33 846.666 1454.33 Q844.467 1454.33 842.013 1455.09 Q839.583 1455.86 836.805 1457.41 L836.805 1452.69 Q839.629 1451.55 842.083 1450.97 Q844.536 1450.39 846.573 1450.39 Q851.944 1450.39 855.138 1453.08 Q858.333 1455.77 858.333 1460.26 Q858.333 1462.39 857.522 1464.31 Q856.735 1466.2 854.629 1468.8 Q854.05 1469.47 850.948 1472.69 Q847.847 1475.88 842.198 1481.64 Z" fill="#000000" fill-rule="evenodd" fill-opacity="1" /><path clip-path="url(#clip020)" d="M1376.39 1455.09 L1364.59 1473.54 L1376.39 1473.54 L1376.39 1455.09 M1375.17 1451.02 L1381.05 1451.02 L1381.05 1473.54 L1385.98 1473.54 L1385.98 1477.43 L1381.05 1477.43 L1381.05 1485.58 L1376.39 1485.58 L1376.39 1477.43 L1360.79 1477.43 L1360.79 1472.92 L1375.17 1451.02 Z" fill="#000000" fill-rule="evenodd" fill-opacity="1" /><path clip-path="url(#clip020)" d="M1899.63 1466.44 Q1896.48 1466.44 1894.63 1468.59 Q1892.8 1470.74 1892.8 1474.49 Q1892.8 1478.22 1894.63 1480.39 Q1896.48 1482.55 1899.63 1482.55 Q1902.77 1482.55 1904.6 1480.39 Q1906.45 1478.22 1906.45 1474.49 Q1906.45 1470.74 1904.6 1468.59 Q1902.77 1466.44 1899.63 1466.44 M1908.91 1451.78 L1908.91 1456.04 Q1907.15 1455.21 1905.34 1454.77 Q1903.56 1454.33 1901.8 1454.33 Q1897.17 1454.33 1894.72 1457.45 Q1892.29 1460.58 1891.94 1466.9 Q1893.31 1464.89 1895.37 1463.82 Q1897.43 1462.73 1899.9 1462.73 Q1905.11 1462.73 1908.12 1465.9 Q1911.15 1469.05 1911.15 1474.49 Q1911.15 1479.82 1908.01 1483.03 Q1904.86 1486.25 1899.63 1486.25 Q1893.63 1486.25 1890.46 1481.67 Q1887.29 1477.06 1887.29 1468.33 Q1887.29 1460.14 1891.18 1455.28 Q1895.07 1450.39 1901.62 1450.39 Q1903.38 1450.39 1905.16 1450.74 Q1906.96 1451.09 1908.91 1451.78 Z" fill="#000000" fill-rule="evenodd" fill-opacity="1" /><path clip-path="url(#clip020)" d="M835.143 1520.52 L843.8 1520.52 L864.871 1560.28 L864.871 1520.52 L871.109 1520.52 L871.109 1568.04 L862.452 1568.04 L841.381 1528.29 L841.381 1568.04 L835.143 1568.04 L835.143 1520.52 Z" fill="#000000" fill-rule="evenodd" fill-opacity="1" /><path clip-path="url(#clip020)" d="M883.045 1553.98 L883.045 1532.4 L888.901 1532.4 L888.901 1553.75 Q888.901 1558.81 890.875 1561.36 Q892.848 1563.87 896.795 1563.87 Q901.537 1563.87 904.275 1560.85 Q907.044 1557.83 907.044 1552.61 L907.044 1532.4 L912.9 1532.4 L912.9 1568.04 L907.044 1568.04 L907.044 1562.57 Q904.911 1565.82 902.078 1567.41 Q899.278 1568.97 895.554 1568.97 Q889.411 1568.97 886.228 1565.15 Q883.045 1561.33 883.045 1553.98 M897.782 1531.54 L897.782 1531.54 Z" fill="#000000" fill-rule="evenodd" fill-opacity="1" /><path clip-path="url(#clip020)" d="M952.718 1539.24 Q954.914 1535.29 957.969 1533.41 Q961.025 1531.54 965.163 1531.54 Q970.733 1531.54 973.756 1535.45 Q976.78 1539.33 976.78 1546.53 L976.78 1568.04 L970.892 1568.04 L970.892 1546.72 Q970.892 1541.59 969.078 1539.11 Q967.263 1536.63 963.539 1536.63 Q958.988 1536.63 956.346 1539.65 Q953.704 1542.68 953.704 1547.9 L953.704 1568.04 L947.816 1568.04 L947.816 1546.72 Q947.816 1541.56 946.002 1539.11 Q944.188 1536.63 940.4 1536.63 Q935.912 1536.63 933.27 1539.68 Q930.629 1542.71 930.629 1547.9 L930.629 1568.04 L924.74 1568.04 L924.74 1532.4 L930.629 1532.4 L930.629 1537.93 Q932.634 1534.66 935.435 1533.1 Q938.236 1531.54 942.087 1531.54 Q945.97 1531.54 948.675 1533.51 Q951.413 1535.48 952.718 1539.24 Z" fill="#000000" fill-rule="evenodd" fill-opacity="1" /><path clip-path="url(#clip020)" d="M1014.05 1550.25 Q1014.05 1543.79 1011.38 1540.13 Q1008.74 1536.44 1004.09 1536.44 Q999.442 1536.44 996.768 1540.13 Q994.127 1543.79 994.127 1550.25 Q994.127 1556.71 996.768 1560.4 Q999.442 1564.07 1004.09 1564.07 Q1008.74 1564.07 1011.38 1560.4 Q1014.05 1556.71 1014.05 1550.25 M994.127 1537.81 Q995.973 1534.62 998.774 1533.1 Q1001.61 1531.54 1005.52 1531.54 Q1012.01 1531.54 1016.06 1536.69 Q1020.13 1541.85 1020.13 1550.25 Q1020.13 1558.65 1016.06 1563.81 Q1012.01 1568.97 1005.52 1568.97 Q1001.61 1568.97 998.774 1567.44 Q995.973 1565.88 994.127 1562.7 L994.127 1568.04 L988.238 1568.04 L988.238 1518.52 L994.127 1518.52 L994.127 1537.81 Z" fill="#000000" fill-rule="evenodd" fill-opacity="1" /><path clip-path="url(#clip020)" d="M1060.33 1548.76 L1060.33 1551.62 L1033.4 1551.62 Q1033.78 1557.67 1037.03 1560.85 Q1040.31 1564 1046.13 1564 Q1049.51 1564 1052.66 1563.17 Q1055.84 1562.35 1058.96 1560.69 L1058.96 1566.23 Q1055.81 1567.57 1052.5 1568.27 Q1049.19 1568.97 1045.78 1568.97 Q1037.25 1568.97 1032.26 1564 Q1027.29 1559.04 1027.29 1550.57 Q1027.29 1541.82 1032 1536.69 Q1036.75 1531.54 1044.77 1531.54 Q1051.96 1531.54 1056.13 1536.18 Q1060.33 1540.8 1060.33 1548.76 M1054.47 1547.04 Q1054.41 1542.23 1051.77 1539.37 Q1049.16 1536.5 1044.83 1536.5 Q1039.93 1536.5 1036.97 1539.27 Q1034.04 1542.04 1033.59 1547.07 L1054.47 1547.04 Z" fill="#000000" fill-rule="evenodd" fill-opacity="1" /><path clip-path="url(#clip020)" d="M1090.6 1537.87 Q1089.61 1537.3 1088.43 1537.04 Q1087.29 1536.76 1085.89 1536.76 Q1080.92 1536.76 1078.25 1540 Q1075.61 1543.22 1075.61 1549.27 L1075.61 1568.04 L1069.72 1568.04 L1069.72 1532.4 L1075.61 1532.4 L1075.61 1537.93 Q1077.45 1534.69 1080.41 1533.13 Q1083.37 1531.54 1087.61 1531.54 Q1088.21 1531.54 1088.94 1531.63 Q1089.68 1531.7 1090.57 1531.85 L1090.6 1537.87 Z" fill="#000000" fill-rule="evenodd" fill-opacity="1" /><path clip-path="url(#clip020)" d="M1131.28 1536.5 Q1126.57 1536.5 1123.83 1540.19 Q1121.09 1543.85 1121.09 1550.25 Q1121.09 1556.65 1123.8 1560.34 Q1126.53 1564 1131.28 1564 Q1135.95 1564 1138.69 1560.31 Q1141.43 1556.62 1141.43 1550.25 Q1141.43 1543.92 1138.69 1540.23 Q1135.95 1536.5 1131.28 1536.5 M1131.28 1531.54 Q1138.91 1531.54 1143.28 1536.5 Q1147.64 1541.47 1147.64 1550.25 Q1147.64 1559 1143.28 1564 Q1138.91 1568.97 1131.28 1568.97 Q1123.61 1568.97 1119.24 1564 Q1114.92 1559 1114.92 1550.25 Q1114.92 1541.47 1119.24 1536.5 Q1123.61 1531.54 1131.28 1531.54 Z" fill="#000000" fill-rule="evenodd" fill-opacity="1" /><path clip-path="url(#clip020)" d="M1175.39 1518.52 L1175.39 1523.39 L1169.79 1523.39 Q1166.64 1523.39 1165.4 1524.66 Q1164.19 1525.93 1164.19 1529.24 L1164.19 1532.4 L1173.83 1532.4 L1173.83 1536.95 L1164.19 1536.95 L1164.19 1568.04 L1158.3 1568.04 L1158.3 1536.95 L1152.7 1536.95 L1152.7 1532.4 L1158.3 1532.4 L1158.3 1529.91 Q1158.3 1523.96 1161.07 1521.26 Q1163.84 1518.52 1169.85 1518.52 L1175.39 1518.52 Z" fill="#000000" fill-rule="evenodd" fill-opacity="1" /><path clip-path="url(#clip020)" d="M1223.8 1545.76 Q1225.87 1546.46 1227.81 1548.76 Q1229.79 1551.05 1231.76 1555.06 L1238.28 1568.04 L1231.38 1568.04 L1225.3 1555.85 Q1222.94 1551.08 1220.71 1549.52 Q1218.52 1547.96 1214.7 1547.96 L1207.7 1547.96 L1207.7 1568.04 L1201.27 1568.04 L1201.27 1520.52 L1215.78 1520.52 Q1223.93 1520.52 1227.94 1523.93 Q1231.95 1527.34 1231.95 1534.21 Q1231.95 1538.7 1229.85 1541.66 Q1227.78 1544.62 1223.8 1545.76 M1207.7 1525.81 L1207.7 1542.68 L1215.78 1542.68 Q1220.43 1542.68 1222.78 1540.54 Q1225.17 1538.38 1225.17 1534.21 Q1225.17 1530.04 1222.78 1527.94 Q1220.43 1525.81 1215.78 1525.81 L1207.7 1525.81 Z" fill="#000000" fill-rule="evenodd" fill-opacity="1" /><path clip-path="url(#clip020)" d="M1261.07 1550.12 Q1253.97 1550.12 1251.24 1551.75 Q1248.5 1553.37 1248.5 1557.29 Q1248.5 1560.4 1250.54 1562.25 Q1252.61 1564.07 1256.14 1564.07 Q1261.01 1564.07 1263.94 1560.63 Q1266.9 1557.16 1266.9 1551.43 L1266.9 1550.12 L1261.07 1550.12 M1272.75 1547.71 L1272.75 1568.04 L1266.9 1568.04 L1266.9 1562.63 Q1264.89 1565.88 1261.9 1567.44 Q1258.91 1568.97 1254.58 1568.97 Q1249.1 1568.97 1245.86 1565.91 Q1242.64 1562.82 1242.64 1557.67 Q1242.64 1551.65 1246.65 1548.6 Q1250.7 1545.54 1258.69 1545.54 L1266.9 1545.54 L1266.9 1544.97 Q1266.9 1540.93 1264.22 1538.73 Q1261.58 1536.5 1256.78 1536.5 Q1253.72 1536.5 1250.82 1537.23 Q1247.93 1537.97 1245.25 1539.43 L1245.25 1534.02 Q1248.47 1532.78 1251.49 1532.17 Q1254.52 1531.54 1257.38 1531.54 Q1265.11 1531.54 1268.93 1535.55 Q1272.75 1539.56 1272.75 1547.71 Z" fill="#000000" fill-rule="evenodd" fill-opacity="1" /><path clip-path="url(#clip020)" d="M1314.45 1546.53 L1314.45 1568.04 L1308.59 1568.04 L1308.59 1546.72 Q1308.59 1541.66 1306.62 1539.14 Q1304.65 1536.63 1300.7 1536.63 Q1295.96 1536.63 1293.22 1539.65 Q1290.48 1542.68 1290.48 1547.9 L1290.48 1568.04 L1284.59 1568.04 L1284.59 1532.4 L1290.48 1532.4 L1290.48 1537.93 Q1292.58 1534.72 1295.42 1533.13 Q1298.28 1531.54 1302 1531.54 Q1308.15 1531.54 1311.3 1535.36 Q1314.45 1539.14 1314.45 1546.53 Z" fill="#000000" fill-rule="evenodd" fill-opacity="1" /><path clip-path="url(#clip020)" d="M1349.59 1537.81 L1349.59 1518.52 L1355.44 1518.52 L1355.44 1568.04 L1349.59 1568.04 L1349.59 1562.7 Q1347.74 1565.88 1344.91 1567.44 Q1342.11 1568.97 1338.16 1568.97 Q1331.7 1568.97 1327.63 1563.81 Q1323.58 1558.65 1323.58 1550.25 Q1323.58 1541.85 1327.63 1536.69 Q1331.7 1531.54 1338.16 1531.54 Q1342.11 1531.54 1344.91 1533.1 Q1347.74 1534.62 1349.59 1537.81 M1329.63 1550.25 Q1329.63 1556.71 1332.27 1560.4 Q1334.95 1564.07 1339.59 1564.07 Q1344.24 1564.07 1346.91 1560.4 Q1349.59 1556.71 1349.59 1550.25 Q1349.59 1543.79 1346.91 1540.13 Q1344.24 1536.44 1339.59 1536.44 Q1334.95 1536.44 1332.27 1540.13 Q1329.63 1543.79 1329.63 1550.25 Z" fill="#000000" fill-rule="evenodd" fill-opacity="1" /><path clip-path="url(#clip020)" d="M1381.32 1536.5 Q1376.61 1536.5 1373.87 1540.19 Q1371.14 1543.85 1371.14 1550.25 Q1371.14 1556.65 1373.84 1560.34 Q1376.58 1564 1381.32 1564 Q1386 1564 1388.74 1560.31 Q1391.47 1556.62 1391.47 1550.25 Q1391.47 1543.92 1388.74 1540.23 Q1386 1536.5 1381.32 1536.5 M1381.32 1531.54 Q1388.96 1531.54 1393.32 1536.5 Q1397.68 1541.47 1397.68 1550.25 Q1397.68 1559 1393.32 1564 Q1388.96 1568.97 1381.32 1568.97 Q1373.65 1568.97 1369.29 1564 Q1364.96 1559 1364.96 1550.25 Q1364.96 1541.47 1369.29 1536.5 Q1373.65 1531.54 1381.32 1531.54 Z" fill="#000000" fill-rule="evenodd" fill-opacity="1" /><path clip-path="url(#clip020)" d="M1435.14 1539.24 Q1437.34 1535.29 1440.39 1533.41 Q1443.45 1531.54 1447.59 1531.54 Q1453.16 1531.54 1456.18 1535.45 Q1459.21 1539.33 1459.21 1546.53 L1459.21 1568.04 L1453.32 1568.04 L1453.32 1546.72 Q1453.32 1541.59 1451.5 1539.11 Q1449.69 1536.63 1445.96 1536.63 Q1441.41 1536.63 1438.77 1539.65 Q1436.13 1542.68 1436.13 1547.9 L1436.13 1568.04 L1430.24 1568.04 L1430.24 1546.72 Q1430.24 1541.56 1428.43 1539.11 Q1426.61 1536.63 1422.83 1536.63 Q1418.34 1536.63 1415.7 1539.68 Q1413.05 1542.71 1413.05 1547.9 L1413.05 1568.04 L1407.17 1568.04 L1407.17 1532.4 L1413.05 1532.4 L1413.05 1537.93 Q1415.06 1534.66 1417.86 1533.1 Q1420.66 1531.54 1424.51 1531.54 Q1428.4 1531.54 1431.1 1533.51 Q1433.84 1535.48 1435.14 1539.24 Z" fill="#000000" fill-rule="evenodd" fill-opacity="1" /><path clip-path="url(#clip020)" d="M1504.12 1568.04 L1485.97 1520.52 L1492.69 1520.52 L1507.74 1560.53 L1522.83 1520.52 L1529.51 1520.52 L1511.4 1568.04 L1504.12 1568.04 Z" fill="#000000" fill-rule="evenodd" fill-opacity="1" /><path clip-path="url(#clip020)" d="M1547.34 1550.12 Q1540.24 1550.12 1537.5 1551.75 Q1534.77 1553.37 1534.77 1557.29 Q1534.77 1560.4 1536.8 1562.25 Q1538.87 1564.07 1542.4 1564.07 Q1547.27 1564.07 1550.2 1560.63 Q1553.16 1557.16 1553.16 1551.43 L1553.16 1550.12 L1547.34 1550.12 M1559.02 1547.71 L1559.02 1568.04 L1553.16 1568.04 L1553.16 1562.63 Q1551.16 1565.88 1548.17 1567.44 Q1545.17 1568.97 1540.85 1568.97 Q1535.37 1568.97 1532.12 1565.91 Q1528.91 1562.82 1528.91 1557.67 Q1528.91 1551.65 1532.92 1548.6 Q1536.96 1545.54 1544.95 1545.54 L1553.16 1545.54 L1553.16 1544.97 Q1553.16 1540.93 1550.49 1538.73 Q1547.85 1536.5 1543.04 1536.5 Q1539.99 1536.5 1537.09 1537.23 Q1534.19 1537.97 1531.52 1539.43 L1531.52 1534.02 Q1534.73 1532.78 1537.76 1532.17 Q1540.78 1531.54 1543.65 1531.54 Q1551.38 1531.54 1555.2 1535.55 Q1559.02 1539.56 1559.02 1547.71 Z" fill="#000000" fill-rule="evenodd" fill-opacity="1" /><path clip-path="url(#clip020)" d="M1591.74 1537.87 Q1590.75 1537.3 1589.57 1537.04 Q1588.43 1536.76 1587.03 1536.76 Q1582.06 1536.76 1579.39 1540 Q1576.75 1543.22 1576.75 1549.27 L1576.75 1568.04 L1570.86 1568.04 L1570.86 1532.4 L1576.75 1532.4 L1576.75 1537.93 Q1578.59 1534.69 1581.55 1533.13 Q1584.51 1531.54 1588.75 1531.54 Q1589.35 1531.54 1590.08 1531.63 Q1590.82 1531.7 1591.71 1531.85 L1591.74 1537.87 Z" fill="#000000" fill-rule="evenodd" fill-opacity="1" /><path clip-path="url(#clip020)" d="M1597.88 1532.4 L1603.74 1532.4 L1603.74 1568.04 L1597.88 1568.04 L1597.88 1532.4 M1597.88 1518.52 L1603.74 1518.52 L1603.74 1525.93 L1597.88 1525.93 L1597.88 1518.52 Z" fill="#000000" fill-rule="evenodd" fill-opacity="1" /><path clip-path="url(#clip020)" d="M1632.19 1550.12 Q1625.1 1550.12 1622.36 1551.75 Q1619.62 1553.37 1619.62 1557.29 Q1619.62 1560.4 1621.66 1562.25 Q1623.73 1564.07 1627.26 1564.07 Q1632.13 1564.07 1635.06 1560.63 Q1638.02 1557.16 1638.02 1551.43 L1638.02 1550.12 L1632.19 1550.12 M1643.87 1547.71 L1643.87 1568.04 L1638.02 1568.04 L1638.02 1562.63 Q1636.01 1565.88 1633.02 1567.44 Q1630.03 1568.97 1625.7 1568.97 Q1620.23 1568.97 1616.98 1565.91 Q1613.76 1562.82 1613.76 1557.67 Q1613.76 1551.65 1617.77 1548.6 Q1621.82 1545.54 1629.81 1545.54 L1638.02 1545.54 L1638.02 1544.97 Q1638.02 1540.93 1635.34 1538.73 Q1632.7 1536.5 1627.9 1536.5 Q1624.84 1536.5 1621.94 1537.23 Q1619.05 1537.97 1616.37 1539.43 L1616.37 1534.02 Q1619.59 1532.78 1622.61 1532.17 Q1625.64 1531.54 1628.5 1531.54 Q1636.24 1531.54 1640.05 1535.55 Q1643.87 1539.56 1643.87 1547.71 Z" fill="#000000" fill-rule="evenodd" fill-opacity="1" /><path clip-path="url(#clip020)" d="M1681.53 1550.25 Q1681.53 1543.79 1678.85 1540.13 Q1676.21 1536.44 1671.57 1536.44 Q1666.92 1536.44 1664.24 1540.13 Q1661.6 1543.79 1661.6 1550.25 Q1661.6 1556.71 1664.24 1560.4 Q1666.92 1564.07 1671.57 1564.07 Q1676.21 1564.07 1678.85 1560.4 Q1681.53 1556.71 1681.53 1550.25 M1661.6 1537.81 Q1663.45 1534.62 1666.25 1533.1 Q1669.08 1531.54 1673 1531.54 Q1679.49 1531.54 1683.53 1536.69 Q1687.61 1541.85 1687.61 1550.25 Q1687.61 1558.65 1683.53 1563.81 Q1679.49 1568.97 1673 1568.97 Q1669.08 1568.97 1666.25 1567.44 Q1663.45 1565.88 1661.6 1562.7 L1661.6 1568.04 L1655.71 1568.04 L1655.71 1518.52 L1661.6 1518.52 L1661.6 1537.81 Z" fill="#000000" fill-rule="evenodd" fill-opacity="1" /><path clip-path="url(#clip020)" d="M1697.31 1518.52 L1703.17 1518.52 L1703.17 1568.04 L1697.31 1568.04 L1697.31 1518.52 Z" fill="#000000" fill-rule="evenodd" fill-opacity="1" /><path clip-path="url(#clip020)" d="M1745.92 1548.76 L1745.92 1551.62 L1718.99 1551.62 Q1719.37 1557.67 1722.62 1560.85 Q1725.9 1564 1731.72 1564 Q1735.09 1564 1738.25 1563.17 Q1741.43 1562.35 1744.55 1560.69 L1744.55 1566.23 Q1741.4 1567.57 1738.09 1568.27 Q1734.78 1568.97 1731.37 1568.97 Q1722.84 1568.97 1717.84 1564 Q1712.88 1559.04 1712.88 1550.57 Q1712.88 1541.82 1717.59 1536.69 Q1722.33 1531.54 1730.35 1531.54 Q1737.55 1531.54 1741.72 1536.18 Q1745.92 1540.8 1745.92 1548.76 M1740.06 1547.04 Q1740 1542.23 1737.35 1539.37 Q1734.74 1536.5 1730.42 1536.5 Q1725.51 1536.5 1722.55 1539.27 Q1719.63 1542.04 1719.18 1547.07 L1740.06 1547.04 Z" fill="#000000" fill-rule="evenodd" fill-opacity="1" /><path clip-path="url(#clip020)" d="M1778.25 1533.45 L1778.25 1538.98 Q1775.77 1537.71 1773.1 1537.07 Q1770.42 1536.44 1767.56 1536.44 Q1763.2 1536.44 1761 1537.77 Q1758.84 1539.11 1758.84 1541.79 Q1758.84 1543.82 1760.4 1545 Q1761.96 1546.15 1766.67 1547.2 L1768.67 1547.64 Q1774.91 1548.98 1777.52 1551.43 Q1780.16 1553.85 1780.16 1558.21 Q1780.16 1563.17 1776.22 1566.07 Q1772.3 1568.97 1765.43 1568.97 Q1762.56 1568.97 1759.44 1568.39 Q1756.36 1567.85 1752.92 1566.74 L1752.92 1560.69 Q1756.17 1562.38 1759.32 1563.24 Q1762.47 1564.07 1765.55 1564.07 Q1769.69 1564.07 1771.92 1562.66 Q1774.15 1561.23 1774.15 1558.65 Q1774.15 1556.27 1772.53 1554.99 Q1770.93 1553.72 1765.49 1552.54 L1763.45 1552.07 Q1758.01 1550.92 1755.59 1548.56 Q1753.17 1546.18 1753.17 1542.04 Q1753.17 1537.01 1756.74 1534.27 Q1760.3 1531.54 1766.86 1531.54 Q1770.11 1531.54 1772.97 1532.01 Q1775.84 1532.49 1778.25 1533.45 Z" fill="#000000" fill-rule="evenodd" fill-opacity="1" /><polyline clip-path="url(#clip022)" style="stroke:#000000; stroke-linecap:butt; stroke-linejoin:round; stroke-width:2; stroke-opacity:0.1; fill:none" points="
  262.551,1384.24 2352.76,1384.24 
  "/>
<polyline clip-path="url(#clip022)" style="stroke:#000000; stroke-linecap:butt; stroke-linejoin:round; stroke-width:2; stroke-opacity:0.1; fill:none" points="
  262.551,1022.06 2352.76,1022.06 
  "/>
<polyline clip-path="url(#clip022)" style="stroke:#000000; stroke-linecap:butt; stroke-linejoin:round; stroke-width:2; stroke-opacity:0.1; fill:none" points="
  262.551,659.879 2352.76,659.879 
  "/>
<polyline clip-path="url(#clip022)" style="stroke:#000000; stroke-linecap:butt; stroke-linejoin:round; stroke-width:2; stroke-opacity:0.1; fill:none" points="
  262.551,297.699 2352.76,297.699 
  "/>
<polyline clip-path="url(#clip020)" style="stroke:#000000; stroke-linecap:butt; stroke-linejoin:round; stroke-width:4; stroke-opacity:1; fill:none" points="
  262.551,1423.18 262.551,47.2441 
  "/>
<polyline clip-path="url(#clip020)" style="stroke:#000000; stroke-linecap:butt; stroke-linejoin:round; stroke-width:4; stroke-opacity:1; fill:none" points="
  262.551,1384.24 281.449,1384.24 
  "/>
<polyline clip-path="url(#clip020)" style="stroke:#000000; stroke-linecap:butt; stroke-linejoin:round; stroke-width:4; stroke-opacity:1; fill:none" points="
  262.551,1022.06 281.449,1022.06 
  "/>
<polyline clip-path="url(#clip020)" style="stroke:#000000; stroke-linecap:butt; stroke-linejoin:round; stroke-width:4; stroke-opacity:1; fill:none" points="
  262.551,659.879 281.449,659.879 
  "/>
<polyline clip-path="url(#clip020)" style="stroke:#000000; stroke-linecap:butt; stroke-linejoin:round; stroke-width:4; stroke-opacity:1; fill:none" points="
  262.551,297.699 281.449,297.699 
  "/>
<path clip-path="url(#clip020)" d="M214.607 1370.04 Q210.996 1370.04 209.167 1373.6 Q207.362 1377.14 207.362 1384.27 Q207.362 1391.38 209.167 1394.94 Q210.996 1398.49 214.607 1398.49 Q218.241 1398.49 220.047 1394.94 Q221.875 1391.38 221.875 1384.27 Q221.875 1377.14 220.047 1373.6 Q218.241 1370.04 214.607 1370.04 M214.607 1366.33 Q220.417 1366.33 223.473 1370.94 Q226.551 1375.52 226.551 1384.27 Q226.551 1393 223.473 1397.61 Q220.417 1402.19 214.607 1402.19 Q208.797 1402.19 205.718 1397.61 Q202.662 1393 202.662 1384.27 Q202.662 1375.52 205.718 1370.94 Q208.797 1366.33 214.607 1366.33 Z" fill="#000000" fill-rule="evenodd" fill-opacity="1" /><path clip-path="url(#clip020)" d="M144.329 1004.78 L162.686 1004.78 L162.686 1008.71 L148.612 1008.71 L148.612 1017.19 Q149.63 1016.84 150.649 1016.68 Q151.667 1016.49 152.686 1016.49 Q158.473 1016.49 161.852 1019.66 Q165.232 1022.83 165.232 1028.25 Q165.232 1033.83 161.76 1036.93 Q158.288 1040.01 151.968 1040.01 Q149.792 1040.01 147.524 1039.64 Q145.279 1039.27 142.871 1038.53 L142.871 1033.83 Q144.954 1034.96 147.177 1035.52 Q149.399 1036.07 151.876 1036.07 Q155.88 1036.07 158.218 1033.97 Q160.556 1031.86 160.556 1028.25 Q160.556 1024.64 158.218 1022.53 Q155.88 1020.43 151.876 1020.43 Q150.001 1020.43 148.126 1020.84 Q146.274 1021.26 144.329 1022.14 L144.329 1004.78 Z" fill="#000000" fill-rule="evenodd" fill-opacity="1" /><path clip-path="url(#clip020)" d="M184.445 1007.86 Q180.834 1007.86 179.005 1011.42 Q177.2 1014.96 177.2 1022.09 Q177.2 1029.2 179.005 1032.76 Q180.834 1036.31 184.445 1036.31 Q188.079 1036.31 189.885 1032.76 Q191.713 1029.2 191.713 1022.09 Q191.713 1014.96 189.885 1011.42 Q188.079 1007.86 184.445 1007.86 M184.445 1004.15 Q190.255 1004.15 193.311 1008.76 Q196.389 1013.34 196.389 1022.09 Q196.389 1030.82 193.311 1035.43 Q190.255 1040.01 184.445 1040.01 Q178.635 1040.01 175.556 1035.43 Q172.501 1030.82 172.501 1022.09 Q172.501 1013.34 175.556 1008.76 Q178.635 1004.15 184.445 1004.15 Z" fill="#000000" fill-rule="evenodd" fill-opacity="1" /><path clip-path="url(#clip020)" d="M214.607 1007.86 Q210.996 1007.86 209.167 1011.42 Q207.362 1014.96 207.362 1022.09 Q207.362 1029.2 209.167 1032.76 Q210.996 1036.31 214.607 1036.31 Q218.241 1036.31 220.047 1032.76 Q221.875 1029.2 221.875 1022.09 Q221.875 1014.96 220.047 1011.42 Q218.241 1007.86 214.607 1007.86 M214.607 1004.15 Q220.417 1004.15 223.473 1008.76 Q226.551 1013.34 226.551 1022.09 Q226.551 1030.82 223.473 1035.43 Q220.417 1040.01 214.607 1040.01 Q208.797 1040.01 205.718 1035.43 Q202.662 1030.82 202.662 1022.09 Q202.662 1013.34 205.718 1008.76 Q208.797 1004.15 214.607 1004.15 Z" fill="#000000" fill-rule="evenodd" fill-opacity="1" /><path clip-path="url(#clip020)" d="M114.931 673.223 L122.57 673.223 L122.57 646.858 L114.26 648.524 L114.26 644.265 L122.524 642.599 L127.2 642.599 L127.2 673.223 L134.839 673.223 L134.839 677.159 L114.931 677.159 L114.931 673.223 Z" fill="#000000" fill-rule="evenodd" fill-opacity="1" /><path clip-path="url(#clip020)" d="M154.283 645.677 Q150.672 645.677 148.843 649.242 Q147.038 652.784 147.038 659.913 Q147.038 667.02 148.843 670.585 Q150.672 674.126 154.283 674.126 Q157.917 674.126 159.723 670.585 Q161.552 667.02 161.552 659.913 Q161.552 652.784 159.723 649.242 Q157.917 645.677 154.283 645.677 M154.283 641.974 Q160.093 641.974 163.149 646.58 Q166.227 651.163 166.227 659.913 Q166.227 668.64 163.149 673.247 Q160.093 677.83 154.283 677.83 Q148.473 677.83 145.394 673.247 Q142.339 668.64 142.339 659.913 Q142.339 651.163 145.394 646.58 Q148.473 641.974 154.283 641.974 Z" fill="#000000" fill-rule="evenodd" fill-opacity="1" /><path clip-path="url(#clip020)" d="M184.445 645.677 Q180.834 645.677 179.005 649.242 Q177.2 652.784 177.2 659.913 Q177.2 667.02 179.005 670.585 Q180.834 674.126 184.445 674.126 Q188.079 674.126 189.885 670.585 Q191.713 667.02 191.713 659.913 Q191.713 652.784 189.885 649.242 Q188.079 645.677 184.445 645.677 M184.445 641.974 Q190.255 641.974 193.311 646.58 Q196.389 651.163 196.389 659.913 Q196.389 668.64 193.311 673.247 Q190.255 677.83 184.445 677.83 Q178.635 677.83 175.556 673.247 Q172.501 668.64 172.501 659.913 Q172.501 651.163 175.556 646.58 Q178.635 641.974 184.445 641.974 Z" fill="#000000" fill-rule="evenodd" fill-opacity="1" /><path clip-path="url(#clip020)" d="M214.607 645.677 Q210.996 645.677 209.167 649.242 Q207.362 652.784 207.362 659.913 Q207.362 667.02 209.167 670.585 Q210.996 674.126 214.607 674.126 Q218.241 674.126 220.047 670.585 Q221.875 667.02 221.875 659.913 Q221.875 652.784 220.047 649.242 Q218.241 645.677 214.607 645.677 M214.607 641.974 Q220.417 641.974 223.473 646.58 Q226.551 651.163 226.551 659.913 Q226.551 668.64 223.473 673.247 Q220.417 677.83 214.607 677.83 Q208.797 677.83 205.718 673.247 Q202.662 668.64 202.662 659.913 Q202.662 651.163 205.718 646.58 Q208.797 641.974 214.607 641.974 Z" fill="#000000" fill-rule="evenodd" fill-opacity="1" /><path clip-path="url(#clip020)" d="M114.931 311.044 L122.57 311.044 L122.57 284.678 L114.26 286.345 L114.26 282.085 L122.524 280.419 L127.2 280.419 L127.2 311.044 L134.839 311.044 L134.839 314.979 L114.931 314.979 L114.931 311.044 Z" fill="#000000" fill-rule="evenodd" fill-opacity="1" /><path clip-path="url(#clip020)" d="M144.329 280.419 L162.686 280.419 L162.686 284.354 L148.612 284.354 L148.612 292.826 Q149.63 292.479 150.649 292.317 Q151.667 292.132 152.686 292.132 Q158.473 292.132 161.852 295.303 Q165.232 298.474 165.232 303.891 Q165.232 309.469 161.76 312.571 Q158.288 315.65 151.968 315.65 Q149.792 315.65 147.524 315.28 Q145.279 314.909 142.871 314.169 L142.871 309.469 Q144.954 310.604 147.177 311.159 Q149.399 311.715 151.876 311.715 Q155.88 311.715 158.218 309.608 Q160.556 307.502 160.556 303.891 Q160.556 300.28 158.218 298.173 Q155.88 296.067 151.876 296.067 Q150.001 296.067 148.126 296.483 Q146.274 296.9 144.329 297.78 L144.329 280.419 Z" fill="#000000" fill-rule="evenodd" fill-opacity="1" /><path clip-path="url(#clip020)" d="M184.445 283.497 Q180.834 283.497 179.005 287.062 Q177.2 290.604 177.2 297.733 Q177.2 304.84 179.005 308.405 Q180.834 311.946 184.445 311.946 Q188.079 311.946 189.885 308.405 Q191.713 304.84 191.713 297.733 Q191.713 290.604 189.885 287.062 Q188.079 283.497 184.445 283.497 M184.445 279.794 Q190.255 279.794 193.311 284.4 Q196.389 288.983 196.389 297.733 Q196.389 306.46 193.311 311.067 Q190.255 315.65 184.445 315.65 Q178.635 315.65 175.556 311.067 Q172.501 306.46 172.501 297.733 Q172.501 288.983 175.556 284.4 Q178.635 279.794 184.445 279.794 Z" fill="#000000" fill-rule="evenodd" fill-opacity="1" /><path clip-path="url(#clip020)" d="M214.607 283.497 Q210.996 283.497 209.167 287.062 Q207.362 290.604 207.362 297.733 Q207.362 304.84 209.167 308.405 Q210.996 311.946 214.607 311.946 Q218.241 311.946 220.047 308.405 Q221.875 304.84 221.875 297.733 Q221.875 290.604 220.047 287.062 Q218.241 283.497 214.607 283.497 M214.607 279.794 Q220.417 279.794 223.473 284.4 Q226.551 288.983 226.551 297.733 Q226.551 306.46 223.473 311.067 Q220.417 315.65 214.607 315.65 Q208.797 315.65 205.718 311.067 Q202.662 306.46 202.662 297.733 Q202.662 288.983 205.718 284.4 Q208.797 279.794 214.607 279.794 Z" fill="#000000" fill-rule="evenodd" fill-opacity="1" /><path clip-path="url(#clip020)" d="M16.4842 1268.01 L16.4842 1259.35 L56.238 1238.28 L16.4842 1238.28 L16.4842 1232.04 L64.0042 1232.04 L64.0042 1240.7 L24.2503 1261.77 L64.0042 1261.77 L64.0042 1268.01 L16.4842 1268.01 Z" fill="#000000" fill-rule="evenodd" fill-opacity="1" /><path clip-path="url(#clip020)" d="M49.9359 1220.1 L28.3562 1220.1 L28.3562 1214.25 L49.7131 1214.25 Q54.7739 1214.25 57.3202 1212.27 Q59.8346 1210.3 59.8346 1206.35 Q59.8346 1201.61 56.8109 1198.87 Q53.7872 1196.11 48.5673 1196.11 L28.3562 1196.11 L28.3562 1190.25 L64.0042 1190.25 L64.0042 1196.11 L58.5296 1196.11 Q61.7762 1198.24 63.3676 1201.07 Q64.9272 1203.87 64.9272 1207.6 Q64.9272 1213.74 61.1078 1216.92 Q57.2883 1220.1 49.9359 1220.1 M27.4968 1205.37 L27.4968 1205.37 Z" fill="#000000" fill-rule="evenodd" fill-opacity="1" /><path clip-path="url(#clip020)" d="M35.1993 1150.43 Q31.2526 1148.23 29.3747 1145.18 Q27.4968 1142.12 27.4968 1137.99 Q27.4968 1132.42 31.4117 1129.39 Q35.2948 1126.37 42.4881 1126.37 L64.0042 1126.37 L64.0042 1132.26 L42.679 1132.26 Q37.5546 1132.26 35.072 1134.07 Q32.5894 1135.89 32.5894 1139.61 Q32.5894 1144.16 35.6131 1146.8 Q38.6368 1149.44 43.8567 1149.44 L64.0042 1149.44 L64.0042 1155.33 L42.679 1155.33 Q37.5228 1155.33 35.072 1157.15 Q32.5894 1158.96 32.5894 1162.75 Q32.5894 1167.24 35.6449 1169.88 Q38.6686 1172.52 43.8567 1172.52 L64.0042 1172.52 L64.0042 1178.41 L28.3562 1178.41 L28.3562 1172.52 L33.8944 1172.52 Q30.616 1170.51 29.0564 1167.71 Q27.4968 1164.91 27.4968 1161.06 Q27.4968 1157.18 29.4702 1154.47 Q31.4436 1151.74 35.1993 1150.43 Z" fill="#000000" fill-rule="evenodd" fill-opacity="1" /><path clip-path="url(#clip020)" d="M46.212 1089.1 Q39.7508 1089.1 36.0905 1091.77 Q32.3984 1094.41 32.3984 1099.06 Q32.3984 1103.71 36.0905 1106.38 Q39.7508 1109.02 46.212 1109.02 Q52.6732 1109.02 56.3653 1106.38 Q60.0256 1103.71 60.0256 1099.06 Q60.0256 1094.41 56.3653 1091.77 Q52.6732 1089.1 46.212 1089.1 M33.7671 1109.02 Q30.5842 1107.18 29.0564 1104.38 Q27.4968 1101.54 27.4968 1097.63 Q27.4968 1091.13 32.6531 1087.09 Q37.8093 1083.02 46.212 1083.02 Q54.6147 1083.02 59.771 1087.09 Q64.9272 1091.13 64.9272 1097.63 Q64.9272 1101.54 63.3994 1104.38 Q61.8398 1107.18 58.657 1109.02 L64.0042 1109.02 L64.0042 1114.91 L14.479 1114.91 L14.479 1109.02 L33.7671 1109.02 Z" fill="#000000" fill-rule="evenodd" fill-opacity="1" /><path clip-path="url(#clip020)" d="M44.7161 1042.82 L47.5806 1042.82 L47.5806 1069.75 Q53.6281 1069.36 56.8109 1066.12 Q59.9619 1062.84 59.9619 1057.01 Q59.9619 1053.64 59.1344 1050.49 Q58.3069 1047.31 56.6518 1044.19 L62.1899 1044.19 Q63.5267 1047.34 64.227 1050.65 Q64.9272 1053.96 64.9272 1057.36 Q64.9272 1065.89 59.9619 1070.89 Q54.9967 1075.86 46.5303 1075.86 Q37.7774 1075.86 32.6531 1071.15 Q27.4968 1066.4 27.4968 1058.38 Q27.4968 1051.19 32.1438 1047.02 Q36.7589 1042.82 44.7161 1042.82 M42.9973 1048.68 Q38.1912 1048.74 35.3266 1051.38 Q32.4621 1053.99 32.4621 1058.32 Q32.4621 1063.22 35.2312 1066.18 Q38.0002 1069.11 43.0292 1069.55 L42.9973 1048.68 Z" fill="#000000" fill-rule="evenodd" fill-opacity="1" /><path clip-path="url(#clip020)" d="M33.8307 1012.55 Q33.2578 1013.54 33.0032 1014.71 Q32.7167 1015.86 32.7167 1017.26 Q32.7167 1022.23 35.9632 1024.9 Q39.1779 1027.54 45.2253 1027.54 L64.0042 1027.54 L64.0042 1033.43 L28.3562 1033.43 L28.3562 1027.54 L33.8944 1027.54 Q30.6479 1025.7 29.0883 1022.74 Q27.4968 1019.77 27.4968 1015.54 Q27.4968 1014.94 27.5923 1014.2 Q27.656 1013.47 27.8151 1012.58 L33.8307 1012.55 Z" fill="#000000" fill-rule="evenodd" fill-opacity="1" /><path clip-path="url(#clip020)" d="M32.4621 971.873 Q32.4621 976.584 36.1542 979.321 Q39.8145 982.058 46.212 982.058 Q52.6095 982.058 56.3017 979.353 Q59.9619 976.615 59.9619 971.873 Q59.9619 967.194 56.2698 964.457 Q52.5777 961.72 46.212 961.72 Q39.8781 961.72 36.186 964.457 Q32.4621 967.194 32.4621 971.873 M27.4968 971.873 Q27.4968 964.234 32.4621 959.874 Q37.4273 955.513 46.212 955.513 Q54.9649 955.513 59.9619 959.874 Q64.9272 964.234 64.9272 971.873 Q64.9272 979.544 59.9619 983.904 Q54.9649 988.233 46.212 988.233 Q37.4273 988.233 32.4621 983.904 Q27.4968 979.544 27.4968 971.873 Z" fill="#000000" fill-rule="evenodd" fill-opacity="1" /><path clip-path="url(#clip020)" d="M14.479 927.759 L19.3487 927.759 L19.3487 933.361 Q19.3487 936.512 20.6219 937.753 Q21.895 938.962 25.2052 938.962 L28.3562 938.962 L28.3562 929.318 L32.9077 929.318 L32.9077 938.962 L64.0042 938.962 L64.0042 944.851 L32.9077 944.851 L32.9077 950.452 L28.3562 950.452 L28.3562 944.851 L25.8736 944.851 Q19.9216 944.851 17.2162 942.082 Q14.479 939.312 14.479 933.297 L14.479 927.759 Z" fill="#000000" fill-rule="evenodd" fill-opacity="1" /><path clip-path="url(#clip020)" d="M16.4842 901.882 L16.4842 895.453 L64.0042 895.453 L64.0042 901.882 L16.4842 901.882 Z" fill="#000000" fill-rule="evenodd" fill-opacity="1" /><path clip-path="url(#clip020)" d="M42.4881 853.28 L64.0042 853.28 L64.0042 859.136 L42.679 859.136 Q37.6183 859.136 35.1038 861.11 Q32.5894 863.083 32.5894 867.03 Q32.5894 871.772 35.6131 874.51 Q38.6368 877.247 43.8567 877.247 L64.0042 877.247 L64.0042 883.135 L28.3562 883.135 L28.3562 877.247 L33.8944 877.247 Q30.6797 875.146 29.0883 872.313 Q27.4968 869.449 27.4968 865.725 Q27.4968 859.582 31.3163 856.431 Q35.1038 853.28 42.4881 853.28 Z" fill="#000000" fill-rule="evenodd" fill-opacity="1" /><path clip-path="url(#clip020)" d="M14.479 823.552 L19.3487 823.552 L19.3487 829.154 Q19.3487 832.305 20.6219 833.546 Q21.895 834.756 25.2052 834.756 L28.3562 834.756 L28.3562 825.112 L32.9077 825.112 L32.9077 834.756 L64.0042 834.756 L64.0042 840.644 L32.9077 840.644 L32.9077 846.246 L28.3562 846.246 L28.3562 840.644 L25.8736 840.644 Q19.9216 840.644 17.2162 837.875 Q14.479 835.106 14.479 829.09 L14.479 823.552 Z" fill="#000000" fill-rule="evenodd" fill-opacity="1" /><path clip-path="url(#clip020)" d="M32.4621 804.837 Q32.4621 809.548 36.1542 812.285 Q39.8145 815.022 46.212 815.022 Q52.6095 815.022 56.3017 812.317 Q59.9619 809.579 59.9619 804.837 Q59.9619 800.158 56.2698 797.421 Q52.5777 794.684 46.212 794.684 Q39.8781 794.684 36.186 797.421 Q32.4621 800.158 32.4621 804.837 M27.4968 804.837 Q27.4968 797.198 32.4621 792.838 Q37.4273 788.477 46.212 788.477 Q54.9649 788.477 59.9619 792.838 Q64.9272 797.198 64.9272 804.837 Q64.9272 812.508 59.9619 816.868 Q54.9649 821.197 46.212 821.197 Q37.4273 821.197 32.4621 816.868 Q27.4968 812.508 27.4968 804.837 Z" fill="#000000" fill-rule="evenodd" fill-opacity="1" /><path clip-path="url(#clip020)" d="M33.8307 758.113 Q33.2578 759.099 33.0032 760.277 Q32.7167 761.423 32.7167 762.823 Q32.7167 767.788 35.9632 770.462 Q39.1779 773.104 45.2253 773.104 L64.0042 773.104 L64.0042 778.992 L28.3562 778.992 L28.3562 773.104 L33.8944 773.104 Q30.6479 771.258 29.0883 768.298 Q27.4968 765.338 27.4968 761.104 Q27.4968 760.5 27.5923 759.768 Q27.656 759.036 27.8151 758.144 L33.8307 758.113 Z" fill="#000000" fill-rule="evenodd" fill-opacity="1" /><path clip-path="url(#clip020)" d="M35.1993 725.361 Q31.2526 723.165 29.3747 720.109 Q27.4968 717.054 27.4968 712.916 Q27.4968 707.346 31.4117 704.322 Q35.2948 701.299 42.4881 701.299 L64.0042 701.299 L64.0042 707.187 L42.679 707.187 Q37.5546 707.187 35.072 709.001 Q32.5894 710.815 32.5894 714.539 Q32.5894 719.091 35.6131 721.733 Q38.6368 724.374 43.8567 724.374 L64.0042 724.374 L64.0042 730.263 L42.679 730.263 Q37.5228 730.263 35.072 732.077 Q32.5894 733.891 32.5894 737.679 Q32.5894 742.167 35.6449 744.808 Q38.6686 747.45 43.8567 747.45 L64.0042 747.45 L64.0042 753.338 L28.3562 753.338 L28.3562 747.45 L33.8944 747.45 Q30.616 745.445 29.0564 742.644 Q27.4968 739.843 27.4968 735.992 Q27.4968 732.109 29.4702 729.403 Q31.4436 726.666 35.1993 725.361 Z" fill="#000000" fill-rule="evenodd" fill-opacity="1" /><path clip-path="url(#clip020)" d="M46.0847 673.417 Q46.0847 680.515 47.7079 683.252 Q49.3312 685.989 53.2461 685.989 Q56.3653 685.989 58.2114 683.952 Q60.0256 681.883 60.0256 678.35 Q60.0256 673.481 56.5881 670.552 Q53.1188 667.592 47.3897 667.592 L46.0847 667.592 L46.0847 673.417 M43.6657 661.736 L64.0042 661.736 L64.0042 667.592 L58.5933 667.592 Q61.8398 669.597 63.3994 672.589 Q64.9272 675.581 64.9272 679.91 Q64.9272 685.384 61.8716 688.631 Q58.7843 691.846 53.6281 691.846 Q47.6125 691.846 44.5569 687.835 Q41.5014 683.793 41.5014 675.804 L41.5014 667.592 L40.9285 667.592 Q36.8862 667.592 34.6901 670.266 Q32.4621 672.908 32.4621 677.714 Q32.4621 680.769 33.1941 683.666 Q33.9262 686.562 35.3903 689.236 L29.9795 689.236 Q28.7381 686.021 28.1334 682.997 Q27.4968 679.974 27.4968 677.109 Q27.4968 669.375 31.5072 665.555 Q35.5176 661.736 43.6657 661.736 Z" fill="#000000" fill-rule="evenodd" fill-opacity="1" /><path clip-path="url(#clip020)" d="M18.2347 643.88 L28.3562 643.88 L28.3562 631.817 L32.9077 631.817 L32.9077 643.88 L52.2594 643.88 Q56.6199 643.88 57.8613 642.702 Q59.1026 641.493 59.1026 637.833 L59.1026 631.817 L64.0042 631.817 L64.0042 637.833 Q64.0042 644.612 61.4897 647.19 Q58.9434 649.768 52.2594 649.768 L32.9077 649.768 L32.9077 654.065 L28.3562 654.065 L28.3562 649.768 L18.2347 649.768 L18.2347 643.88 Z" fill="#000000" fill-rule="evenodd" fill-opacity="1" /><path clip-path="url(#clip020)" d="M28.3562 624.114 L28.3562 618.258 L64.0042 618.258 L64.0042 624.114 L28.3562 624.114 M14.479 624.114 L14.479 618.258 L21.895 618.258 L21.895 624.114 L14.479 624.114 Z" fill="#000000" fill-rule="evenodd" fill-opacity="1" /><path clip-path="url(#clip020)" d="M32.4621 592.19 Q32.4621 596.901 36.1542 599.638 Q39.8145 602.376 46.212 602.376 Q52.6095 602.376 56.3017 599.67 Q59.9619 596.933 59.9619 592.19 Q59.9619 587.512 56.2698 584.774 Q52.5777 582.037 46.212 582.037 Q39.8781 582.037 36.186 584.774 Q32.4621 587.512 32.4621 592.19 M27.4968 592.19 Q27.4968 584.552 32.4621 580.191 Q37.4273 575.831 46.212 575.831 Q54.9649 575.831 59.9619 580.191 Q64.9272 584.552 64.9272 592.19 Q64.9272 599.861 59.9619 604.222 Q54.9649 608.55 46.212 608.55 Q37.4273 608.55 32.4621 604.222 Q27.4968 599.861 27.4968 592.19 Z" fill="#000000" fill-rule="evenodd" fill-opacity="1" /><path clip-path="url(#clip020)" d="M42.4881 536.491 L64.0042 536.491 L64.0042 542.347 L42.679 542.347 Q37.6183 542.347 35.1038 544.32 Q32.5894 546.294 32.5894 550.24 Q32.5894 554.983 35.6131 557.72 Q38.6368 560.457 43.8567 560.457 L64.0042 560.457 L64.0042 566.346 L28.3562 566.346 L28.3562 560.457 L33.8944 560.457 Q30.6797 558.357 29.0883 555.524 Q27.4968 552.659 27.4968 548.935 Q27.4968 542.793 31.3163 539.642 Q35.1038 536.491 42.4881 536.491 Z" fill="#000000" fill-rule="evenodd" fill-opacity="1" /><path clip-path="url(#clip020)" d="M16.4842 503.834 L16.4842 494.254 L48.8219 482.127 L16.4842 469.937 L16.4842 460.357 L64.0042 460.357 L64.0042 466.627 L22.277 466.627 L54.8694 478.881 L54.8694 485.342 L22.277 497.596 L64.0042 497.596 L64.0042 503.834 L16.4842 503.834 Z" fill="#000000" fill-rule="evenodd" fill-opacity="1" /><path clip-path="url(#clip020)" d="M44.7161 417.356 L47.5806 417.356 L47.5806 444.283 Q53.6281 443.901 56.8109 440.655 Q59.9619 437.376 59.9619 431.552 Q59.9619 428.178 59.1344 425.027 Q58.3069 421.844 56.6518 418.725 L62.1899 418.725 Q63.5267 421.876 64.227 425.186 Q64.9272 428.496 64.9272 431.902 Q64.9272 440.432 59.9619 445.429 Q54.9967 450.394 46.5303 450.394 Q37.7774 450.394 32.6531 445.684 Q27.4968 440.941 27.4968 432.92 Q27.4968 425.727 32.1438 421.558 Q36.7589 417.356 44.7161 417.356 M42.9973 423.213 Q38.1912 423.276 35.3266 425.918 Q32.4621 428.528 32.4621 432.857 Q32.4621 437.758 35.2312 440.718 Q38.0002 443.647 43.0292 444.092 L42.9973 423.213 Z" fill="#000000" fill-rule="evenodd" fill-opacity="1" /><path clip-path="url(#clip020)" d="M46.0847 391.543 Q46.0847 398.641 47.7079 401.378 Q49.3312 404.116 53.2461 404.116 Q56.3653 404.116 58.2114 402.079 Q60.0256 400.01 60.0256 396.477 Q60.0256 391.607 56.5881 388.679 Q53.1188 385.719 47.3897 385.719 L46.0847 385.719 L46.0847 391.543 M43.6657 379.862 L64.0042 379.862 L64.0042 385.719 L58.5933 385.719 Q61.8398 387.724 63.3994 390.716 Q64.9272 393.708 64.9272 398.036 Q64.9272 403.511 61.8716 406.757 Q58.7843 409.972 53.6281 409.972 Q47.6125 409.972 44.5569 405.962 Q41.5014 401.919 41.5014 393.931 L41.5014 385.719 L40.9285 385.719 Q36.8862 385.719 34.6901 388.392 Q32.4621 391.034 32.4621 395.84 Q32.4621 398.896 33.1941 401.792 Q33.9262 404.689 35.3903 407.362 L29.9795 407.362 Q28.7381 404.147 28.1334 401.124 Q27.4968 398.1 27.4968 395.235 Q27.4968 387.501 31.5072 383.682 Q35.5176 379.862 43.6657 379.862 Z" fill="#000000" fill-rule="evenodd" fill-opacity="1" /><path clip-path="url(#clip020)" d="M29.4065 345.074 L34.9447 345.074 Q33.6716 347.556 33.035 350.23 Q32.3984 352.904 32.3984 355.768 Q32.3984 360.129 33.7352 362.325 Q35.072 364.489 37.7456 364.489 Q39.7826 364.489 40.9603 362.93 Q42.1061 361.37 43.1565 356.659 L43.6021 354.654 Q44.9389 348.416 47.3897 345.806 Q49.8086 343.164 54.1691 343.164 Q59.1344 343.164 62.0308 347.111 Q64.9272 351.026 64.9272 357.901 Q64.9272 360.765 64.3543 363.884 Q63.8132 366.972 62.6992 370.409 L56.6518 370.409 Q58.3387 367.163 59.198 364.012 Q60.0256 360.861 60.0256 357.773 Q60.0256 353.636 58.6251 351.408 Q57.1929 349.18 54.6147 349.18 Q52.2276 349.18 50.9545 350.803 Q49.6813 352.394 48.5037 357.837 L48.0262 359.874 Q46.8804 365.317 44.5251 367.736 Q42.138 370.155 38.0002 370.155 Q32.9713 370.155 30.2341 366.59 Q27.4968 363.025 27.4968 356.468 Q27.4968 353.222 27.9743 350.357 Q28.4517 347.493 29.4065 345.074 Z" fill="#000000" fill-rule="evenodd" fill-opacity="1" /><path clip-path="url(#clip020)" d="M49.9359 334.443 L28.3562 334.443 L28.3562 328.587 L49.7131 328.587 Q54.7739 328.587 57.3202 326.613 Q59.8346 324.64 59.8346 320.693 Q59.8346 315.951 56.8109 313.213 Q53.7872 310.444 48.5673 310.444 L28.3562 310.444 L28.3562 304.588 L64.0042 304.588 L64.0042 310.444 L58.5296 310.444 Q61.7762 312.577 63.3676 315.41 Q64.9272 318.21 64.9272 321.934 Q64.9272 328.077 61.1078 331.26 Q57.2883 334.443 49.9359 334.443 M27.4968 319.706 L27.4968 319.706 Z" fill="#000000" fill-rule="evenodd" fill-opacity="1" /><path clip-path="url(#clip020)" d="M33.8307 271.868 Q33.2578 272.855 33.0032 274.032 Q32.7167 275.178 32.7167 276.579 Q32.7167 281.544 35.9632 284.218 Q39.1779 286.859 45.2253 286.859 L64.0042 286.859 L64.0042 292.748 L28.3562 292.748 L28.3562 286.859 L33.8944 286.859 Q30.6479 285.013 29.0883 282.053 Q27.4968 279.093 27.4968 274.86 Q27.4968 274.255 27.5923 273.523 Q27.656 272.791 27.8151 271.9 L33.8307 271.868 Z" fill="#000000" fill-rule="evenodd" fill-opacity="1" /><path clip-path="url(#clip020)" d="M44.7161 236.666 L47.5806 236.666 L47.5806 263.593 Q53.6281 263.211 56.8109 259.964 Q59.9619 256.686 59.9619 250.861 Q59.9619 247.487 59.1344 244.336 Q58.3069 241.154 56.6518 238.034 L62.1899 238.034 Q63.5267 241.185 64.227 244.496 Q64.9272 247.806 64.9272 251.211 Q64.9272 259.741 59.9619 264.739 Q54.9967 269.704 46.5303 269.704 Q37.7774 269.704 32.6531 264.993 Q27.4968 260.251 27.4968 252.23 Q27.4968 245.037 32.1438 240.867 Q36.7589 236.666 44.7161 236.666 M42.9973 242.522 Q38.1912 242.586 35.3266 245.228 Q32.4621 247.838 32.4621 252.166 Q32.4621 257.068 35.2312 260.028 Q38.0002 262.956 43.0292 263.402 L42.9973 242.522 Z" fill="#000000" fill-rule="evenodd" fill-opacity="1" /><path clip-path="url(#clip020)" d="M29.4065 204.328 L34.9447 204.328 Q33.6716 206.811 33.035 209.484 Q32.3984 212.158 32.3984 215.022 Q32.3984 219.383 33.7352 221.579 Q35.072 223.743 37.7456 223.743 Q39.7826 223.743 40.9603 222.184 Q42.1061 220.624 43.1565 215.914 L43.6021 213.908 Q44.9389 207.67 47.3897 205.06 Q49.8086 202.418 54.1691 202.418 Q59.1344 202.418 62.0308 206.365 Q64.9272 210.28 64.9272 217.155 Q64.9272 220.019 64.3543 223.139 Q63.8132 226.226 62.6992 229.663 L56.6518 229.663 Q58.3387 226.417 59.198 223.266 Q60.0256 220.115 60.0256 217.028 Q60.0256 212.89 58.6251 210.662 Q57.1929 208.434 54.6147 208.434 Q52.2276 208.434 50.9545 210.057 Q49.6813 211.649 48.5037 217.091 L48.0262 219.128 Q46.8804 224.571 44.5251 226.99 Q42.138 229.409 38.0002 229.409 Q32.9713 229.409 30.2341 225.844 Q27.4968 222.279 27.4968 215.723 Q27.4968 212.476 27.9743 209.611 Q28.4517 206.747 29.4065 204.328 Z" fill="#000000" fill-rule="evenodd" fill-opacity="1" /><path clip-path="url(#clip022)" d="
M584.627 1383.51 L847.546 1379.89 L1110.46 1366.85 L1373.38 1326.29 L1636.3 1210.39 L1899.22 897.469 L2162.14 86.1857 L2162.14 1384.24 L1899.22 1384.24 L1636.3 1384.24 
  L1373.38 1384.24 L1110.46 1384.24 L847.546 1384.24 L584.627 1384.24  Z
  " fill="#009af9" fill-rule="evenodd" fill-opacity="0.1"/>
<polyline clip-path="url(#clip022)" style="stroke:#009af9; stroke-linecap:butt; stroke-linejoin:round; stroke-width:4; stroke-opacity:1; fill:none" points="
  584.627,1383.51 847.546,1379.89 1110.46,1366.85 1373.38,1326.29 1636.3,1210.39 1899.22,897.469 2162.14,86.1857 
  "/>
<circle clip-path="url(#clip022)" cx="584.627" cy="1383.51" r="14" fill="#009af9" fill-rule="evenodd" fill-opacity="1" stroke="#000000" stroke-opacity="1" stroke-width="3.2"/>
<circle clip-path="url(#clip022)" cx="847.546" cy="1379.89" r="14" fill="#009af9" fill-rule="evenodd" fill-opacity="1" stroke="#000000" stroke-opacity="1" stroke-width="3.2"/>
<circle clip-path="url(#clip022)" cx="1110.46" cy="1366.85" r="14" fill="#009af9" fill-rule="evenodd" fill-opacity="1" stroke="#000000" stroke-opacity="1" stroke-width="3.2"/>
<circle clip-path="url(#clip022)" cx="1373.38" cy="1326.29" r="14" fill="#009af9" fill-rule="evenodd" fill-opacity="1" stroke="#000000" stroke-opacity="1" stroke-width="3.2"/>
<circle clip-path="url(#clip022)" cx="1636.3" cy="1210.39" r="14" fill="#009af9" fill-rule="evenodd" fill-opacity="1" stroke="#000000" stroke-opacity="1" stroke-width="3.2"/>
<circle clip-path="url(#clip022)" cx="1899.22" cy="897.469" r="14" fill="#009af9" fill-rule="evenodd" fill-opacity="1" stroke="#000000" stroke-opacity="1" stroke-width="3.2"/>
<circle clip-path="url(#clip022)" cx="2162.14" cy="86.1857" r="14" fill="#009af9" fill-rule="evenodd" fill-opacity="1" stroke="#000000" stroke-opacity="1" stroke-width="3.2"/>
<path clip-path="url(#clip022)" d="
M584.627 1383.51 L847.546 1380.62 L1110.46 1371.2 L1373.38 1343.67 L1636.3 1268.34 L1899.22 1071.31 L2162.14 572.955 L2162.14 1384.24 L1899.22 1384.24 L1636.3 1384.24 
  L1373.38 1384.24 L1110.46 1384.24 L847.546 1384.24 L584.627 1384.24  Z
  " fill="#e26f46" fill-rule="evenodd" fill-opacity="0.1"/>
<polyline clip-path="url(#clip022)" style="stroke:#e26f46; stroke-linecap:butt; stroke-linejoin:round; stroke-width:4; stroke-opacity:1; fill:none" points="
  584.627,1383.51 847.546,1380.62 1110.46,1371.2 1373.38,1343.67 1636.3,1268.34 1899.22,1071.31 2162.14,572.955 
  "/>
<path clip-path="url(#clip022)" d="M568.627 1367.51 L568.627 1399.51 L600.627 1399.51 L600.627 1367.51 L568.627 1367.51 Z" fill="#e26f46" fill-rule="evenodd" fill-opacity="1" stroke="#000000" stroke-opacity="1" stroke-width="3.2"/>
<path clip-path="url(#clip022)" d="M831.546 1364.62 L831.546 1396.62 L863.546 1396.62 L863.546 1364.62 L831.546 1364.62 Z" fill="#e26f46" fill-rule="evenodd" fill-opacity="1" stroke="#000000" stroke-opacity="1" stroke-width="3.2"/>
<path clip-path="url(#clip022)" d="M1094.46 1355.2 L1094.46 1387.2 L1126.46 1387.2 L1126.46 1355.2 L1094.46 1355.2 Z" fill="#e26f46" fill-rule="evenodd" fill-opacity="1" stroke="#000000" stroke-opacity="1" stroke-width="3.2"/>
<path clip-path="url(#clip022)" d="M1357.38 1327.67 L1357.38 1359.67 L1389.38 1359.67 L1389.38 1327.67 L1357.38 1327.67 Z" fill="#e26f46" fill-rule="evenodd" fill-opacity="1" stroke="#000000" stroke-opacity="1" stroke-width="3.2"/>
<path clip-path="url(#clip022)" d="M1620.3 1252.34 L1620.3 1284.34 L1652.3 1284.34 L1652.3 1252.34 L1620.3 1252.34 Z" fill="#e26f46" fill-rule="evenodd" fill-opacity="1" stroke="#000000" stroke-opacity="1" stroke-width="3.2"/>
<path clip-path="url(#clip022)" d="M1883.22 1055.31 L1883.22 1087.31 L1915.22 1087.31 L1915.22 1055.31 L1883.22 1055.31 Z" fill="#e26f46" fill-rule="evenodd" fill-opacity="1" stroke="#000000" stroke-opacity="1" stroke-width="3.2"/>
<path clip-path="url(#clip022)" d="M2146.14 556.955 L2146.14 588.955 L2178.14 588.955 L2178.14 556.955 L2146.14 556.955 Z" fill="#e26f46" fill-rule="evenodd" fill-opacity="1" stroke="#000000" stroke-opacity="1" stroke-width="3.2"/>
<path clip-path="url(#clip020)" d="
M332.225 248.629 L1139.93 248.629 L1139.93 93.1086 L332.225 93.1086  Z
  " fill="#ffffff" fill-rule="evenodd" fill-opacity="1"/>
<polyline clip-path="url(#clip020)" style="stroke:#000000; stroke-linecap:butt; stroke-linejoin:round; stroke-width:4; stroke-opacity:1; fill:none" points="
  332.225,248.629 1139.93,248.629 1139.93,93.1086 332.225,93.1086 332.225,248.629 
  "/>
<path clip-path="url(#clip020)" d="
M355.449 165.685 L494.796 165.685 L494.796 124.213 L355.449 124.213 L355.449 165.685  Z
  " fill="#009af9" fill-rule="evenodd" fill-opacity="0.1"/>
<polyline clip-path="url(#clip020)" style="stroke:#009af9; stroke-linecap:butt; stroke-linejoin:round; stroke-width:4; stroke-opacity:1; fill:none" points="
  355.449,124.213 494.796,124.213 
  "/>
<circle clip-path="url(#clip020)" cx="425.123" cy="144.949" r="23" fill="#009af9" fill-rule="evenodd" fill-opacity="1" stroke="#000000" stroke-opacity="1" stroke-width="5.12"/>
<path clip-path="url(#clip020)" d="M518.021 127.669 L539.872 127.669 L539.872 131.604 L522.697 131.604 L522.697 141.835 L539.155 141.835 L539.155 145.77 L522.697 145.77 L522.697 158.293 L540.289 158.293 L540.289 162.229 L518.021 162.229 L518.021 127.669 Z" fill="#000000" fill-rule="evenodd" fill-opacity="1" /><path clip-path="url(#clip020)" d="M547.789 126.21 L552.048 126.21 L552.048 162.229 L547.789 162.229 L547.789 126.21 Z" fill="#000000" fill-rule="evenodd" fill-opacity="1" /><path clip-path="url(#clip020)" d="M583.136 148.201 L583.136 150.284 L563.553 150.284 Q563.831 154.682 566.192 156.997 Q568.576 159.289 572.812 159.289 Q575.266 159.289 577.557 158.687 Q579.872 158.085 582.141 156.881 L582.141 160.909 Q579.849 161.881 577.442 162.391 Q575.034 162.9 572.557 162.9 Q566.354 162.9 562.72 159.289 Q559.108 155.678 559.108 149.52 Q559.108 143.155 562.534 139.428 Q565.983 135.678 571.817 135.678 Q577.048 135.678 580.081 139.057 Q583.136 142.414 583.136 148.201 M578.877 146.951 Q578.831 143.456 576.909 141.372 Q575.011 139.289 571.863 139.289 Q568.298 139.289 566.145 141.303 Q564.016 143.317 563.692 146.974 L578.877 146.951 Z" fill="#000000" fill-rule="evenodd" fill-opacity="1" /><path clip-path="url(#clip020)" d="M610.312 141.28 Q611.909 138.409 614.131 137.044 Q616.353 135.678 619.363 135.678 Q623.414 135.678 625.613 138.525 Q627.812 141.349 627.812 146.581 L627.812 162.229 L623.529 162.229 L623.529 146.719 Q623.529 142.993 622.21 141.187 Q620.891 139.382 618.182 139.382 Q614.872 139.382 612.951 141.581 Q611.029 143.78 611.029 147.576 L611.029 162.229 L606.747 162.229 L606.747 146.719 Q606.747 142.969 605.428 141.187 Q604.108 139.382 601.354 139.382 Q598.09 139.382 596.168 141.604 Q594.247 143.803 594.247 147.576 L594.247 162.229 L589.965 162.229 L589.965 136.303 L594.247 136.303 L594.247 140.331 Q595.705 137.946 597.742 136.812 Q599.78 135.678 602.58 135.678 Q605.404 135.678 607.372 137.113 Q609.363 138.548 610.312 141.28 Z" fill="#000000" fill-rule="evenodd" fill-opacity="1" /><path clip-path="url(#clip020)" d="M658.483 148.201 L658.483 150.284 L638.9 150.284 Q639.177 154.682 641.539 156.997 Q643.923 159.289 648.159 159.289 Q650.613 159.289 652.904 158.687 Q655.219 158.085 657.488 156.881 L657.488 160.909 Q655.196 161.881 652.788 162.391 Q650.381 162.9 647.904 162.9 Q641.701 162.9 638.066 159.289 Q634.455 155.678 634.455 149.52 Q634.455 143.155 637.881 139.428 Q641.33 135.678 647.164 135.678 Q652.395 135.678 655.427 139.057 Q658.483 142.414 658.483 148.201 M654.224 146.951 Q654.177 143.456 652.256 141.372 Q650.358 139.289 647.21 139.289 Q643.645 139.289 641.492 141.303 Q639.363 143.317 639.039 146.974 L654.224 146.951 Z" fill="#000000" fill-rule="evenodd" fill-opacity="1" /><path clip-path="url(#clip020)" d="M687.024 146.581 L687.024 162.229 L682.765 162.229 L682.765 146.719 Q682.765 143.039 681.33 141.21 Q679.895 139.382 677.024 139.382 Q673.575 139.382 671.585 141.581 Q669.594 143.78 669.594 147.576 L669.594 162.229 L665.312 162.229 L665.312 136.303 L669.594 136.303 L669.594 140.331 Q671.122 137.993 673.182 136.835 Q675.265 135.678 677.974 135.678 Q682.441 135.678 684.733 138.456 Q687.024 141.21 687.024 146.581 Z" fill="#000000" fill-rule="evenodd" fill-opacity="1" /><path clip-path="url(#clip020)" d="M699.733 128.942 L699.733 136.303 L708.506 136.303 L708.506 139.613 L699.733 139.613 L699.733 153.687 Q699.733 156.858 700.589 157.761 Q701.469 158.664 704.131 158.664 L708.506 158.664 L708.506 162.229 L704.131 162.229 Q699.2 162.229 697.325 160.4 Q695.45 158.548 695.45 153.687 L695.45 139.613 L692.325 139.613 L692.325 136.303 L695.45 136.303 L695.45 128.942 L699.733 128.942 Z" fill="#000000" fill-rule="evenodd" fill-opacity="1" /><path clip-path="url(#clip020)" d="M725.89 149.196 Q720.728 149.196 718.737 150.377 Q716.746 151.557 716.746 154.405 Q716.746 156.673 718.228 158.016 Q719.733 159.335 722.302 159.335 Q725.844 159.335 727.973 156.835 Q730.126 154.312 730.126 150.145 L730.126 149.196 L725.89 149.196 M734.385 147.437 L734.385 162.229 L730.126 162.229 L730.126 158.293 Q728.668 160.655 726.492 161.789 Q724.316 162.9 721.168 162.9 Q717.186 162.9 714.825 160.678 Q712.487 158.432 712.487 154.682 Q712.487 150.307 715.404 148.085 Q718.344 145.863 724.154 145.863 L730.126 145.863 L730.126 145.446 Q730.126 142.507 728.182 140.909 Q726.26 139.289 722.765 139.289 Q720.543 139.289 718.436 139.821 Q716.33 140.354 714.385 141.419 L714.385 137.483 Q716.723 136.581 718.922 136.141 Q721.121 135.678 723.205 135.678 Q728.83 135.678 731.608 138.594 Q734.385 141.511 734.385 147.437 Z" fill="#000000" fill-rule="evenodd" fill-opacity="1" /><path clip-path="url(#clip020)" d="M743.158 126.21 L747.418 126.21 L747.418 162.229 L743.158 162.229 L743.158 126.21 Z" fill="#000000" fill-rule="evenodd" fill-opacity="1" /><path clip-path="url(#clip020)" d="M771.584 127.669 L776.26 127.669 L776.26 162.229 L771.584 162.229 L771.584 127.669 Z" fill="#000000" fill-rule="evenodd" fill-opacity="1" /><path clip-path="url(#clip020)" d="M785.566 127.669 L792.533 127.669 L801.352 151.187 L810.218 127.669 L817.186 127.669 L817.186 162.229 L812.626 162.229 L812.626 131.882 L803.714 155.585 L799.015 155.585 L790.103 131.882 L790.103 162.229 L785.566 162.229 L785.566 127.669 Z" fill="#000000" fill-rule="evenodd" fill-opacity="1" /><path clip-path="url(#clip020)" d="M848.459 148.201 L848.459 150.284 L828.875 150.284 Q829.153 154.682 831.514 156.997 Q833.899 159.289 838.135 159.289 Q840.588 159.289 842.88 158.687 Q845.195 158.085 847.463 156.881 L847.463 160.909 Q845.172 161.881 842.764 162.391 Q840.357 162.9 837.88 162.9 Q831.676 162.9 828.042 159.289 Q824.431 155.678 824.431 149.52 Q824.431 143.155 827.857 139.428 Q831.306 135.678 837.139 135.678 Q842.371 135.678 845.403 139.057 Q848.459 142.414 848.459 148.201 M844.199 146.951 Q844.153 143.456 842.232 141.372 Q840.334 139.289 837.186 139.289 Q833.621 139.289 831.468 141.303 Q829.338 143.317 829.014 146.974 L844.199 146.951 Z" fill="#000000" fill-rule="evenodd" fill-opacity="1" /><path clip-path="url(#clip020)" d="M867.232 149.196 Q862.07 149.196 860.079 150.377 Q858.088 151.557 858.088 154.405 Q858.088 156.673 859.57 158.016 Q861.074 159.335 863.644 159.335 Q867.185 159.335 869.315 156.835 Q871.468 154.312 871.468 150.145 L871.468 149.196 L867.232 149.196 M875.727 147.437 L875.727 162.229 L871.468 162.229 L871.468 158.293 Q870.01 160.655 867.834 161.789 Q865.658 162.9 862.51 162.9 Q858.528 162.9 856.167 160.678 Q853.829 158.432 853.829 154.682 Q853.829 150.307 856.746 148.085 Q859.686 145.863 865.496 145.863 L871.468 145.863 L871.468 145.446 Q871.468 142.507 869.523 140.909 Q867.602 139.289 864.107 139.289 Q861.885 139.289 859.778 139.821 Q857.672 140.354 855.727 141.419 L855.727 137.483 Q858.065 136.581 860.264 136.141 Q862.463 135.678 864.547 135.678 Q870.172 135.678 872.949 138.594 Q875.727 141.511 875.727 147.437 Z" fill="#000000" fill-rule="evenodd" fill-opacity="1" /><path clip-path="url(#clip020)" d="M901.028 137.067 L901.028 141.094 Q899.222 140.169 897.278 139.706 Q895.333 139.243 893.25 139.243 Q890.079 139.243 888.482 140.215 Q886.908 141.187 886.908 143.131 Q886.908 144.613 888.042 145.469 Q889.176 146.303 892.602 147.067 L894.06 147.391 Q898.597 148.363 900.495 150.145 Q902.417 151.905 902.417 155.076 Q902.417 158.687 899.546 160.793 Q896.699 162.9 891.699 162.9 Q889.616 162.9 887.347 162.483 Q885.102 162.09 882.602 161.28 L882.602 156.881 Q884.963 158.108 887.255 158.733 Q889.546 159.335 891.792 159.335 Q894.801 159.335 896.421 158.317 Q898.042 157.275 898.042 155.4 Q898.042 153.664 896.861 152.738 Q895.704 151.812 891.746 150.956 L890.264 150.608 Q886.306 149.775 884.546 148.062 Q882.787 146.326 882.787 143.317 Q882.787 139.659 885.38 137.669 Q887.972 135.678 892.741 135.678 Q895.102 135.678 897.185 136.025 Q899.269 136.372 901.028 137.067 Z" fill="#000000" fill-rule="evenodd" fill-opacity="1" /><path clip-path="url(#clip020)" d="M908.759 151.997 L908.759 136.303 L913.019 136.303 L913.019 151.835 Q913.019 155.516 914.454 157.368 Q915.889 159.196 918.759 159.196 Q922.208 159.196 924.199 156.997 Q926.213 154.798 926.213 151.002 L926.213 136.303 L930.472 136.303 L930.472 162.229 L926.213 162.229 L926.213 158.247 Q924.662 160.608 922.602 161.766 Q920.565 162.9 917.857 162.9 Q913.389 162.9 911.074 160.122 Q908.759 157.344 908.759 151.997 M919.477 135.678 L919.477 135.678 Z" fill="#000000" fill-rule="evenodd" fill-opacity="1" /><path clip-path="url(#clip020)" d="M954.268 140.284 Q953.551 139.868 952.694 139.682 Q951.861 139.474 950.842 139.474 Q947.231 139.474 945.287 141.835 Q943.366 144.173 943.366 148.571 L943.366 162.229 L939.083 162.229 L939.083 136.303 L943.366 136.303 L943.366 140.331 Q944.708 137.969 946.861 136.835 Q949.014 135.678 952.092 135.678 Q952.532 135.678 953.065 135.747 Q953.597 135.794 954.245 135.909 L954.268 140.284 Z" fill="#000000" fill-rule="evenodd" fill-opacity="1" /><path clip-path="url(#clip020)" d="M979.87 148.201 L979.87 150.284 L960.287 150.284 Q960.565 154.682 962.926 156.997 Q965.31 159.289 969.546 159.289 Q972 159.289 974.291 158.687 Q976.606 158.085 978.875 156.881 L978.875 160.909 Q976.583 161.881 974.176 162.391 Q971.768 162.9 969.291 162.9 Q963.088 162.9 959.454 159.289 Q955.842 155.678 955.842 149.52 Q955.842 143.155 959.268 139.428 Q962.717 135.678 968.551 135.678 Q973.782 135.678 976.815 139.057 Q979.87 142.414 979.87 148.201 M975.611 146.951 Q975.565 143.456 973.643 141.372 Q971.745 139.289 968.597 139.289 Q965.032 139.289 962.879 141.303 Q960.75 143.317 960.426 146.974 L975.611 146.951 Z" fill="#000000" fill-rule="evenodd" fill-opacity="1" /><path clip-path="url(#clip020)" d="M1003.39 137.067 L1003.39 141.094 Q1001.58 140.169 999.638 139.706 Q997.694 139.243 995.611 139.243 Q992.439 139.243 990.842 140.215 Q989.268 141.187 989.268 143.131 Q989.268 144.613 990.402 145.469 Q991.537 146.303 994.963 147.067 L996.421 147.391 Q1000.96 148.363 1002.86 150.145 Q1004.78 151.905 1004.78 155.076 Q1004.78 158.687 1001.91 160.793 Q999.06 162.9 994.06 162.9 Q991.976 162.9 989.708 162.483 Q987.463 162.09 984.963 161.28 L984.963 156.881 Q987.324 158.108 989.615 158.733 Q991.907 159.335 994.152 159.335 Q997.162 159.335 998.782 158.317 Q1000.4 157.275 1000.4 155.4 Q1000.4 153.664 999.222 152.738 Q998.064 151.812 994.106 150.956 L992.625 150.608 Q988.666 149.775 986.907 148.062 Q985.148 146.326 985.148 143.317 Q985.148 139.659 987.74 137.669 Q990.333 135.678 995.101 135.678 Q997.463 135.678 999.546 136.025 Q1001.63 136.372 1003.39 137.067 Z" fill="#000000" fill-rule="evenodd" fill-opacity="1" /><path clip-path="url(#clip020)" d="M1043.16 137.067 L1043.16 141.094 Q1041.35 140.169 1039.41 139.706 Q1037.46 139.243 1035.38 139.243 Q1032.21 139.243 1030.61 140.215 Q1029.04 141.187 1029.04 143.131 Q1029.04 144.613 1030.17 145.469 Q1031.3 146.303 1034.73 147.067 L1036.19 147.391 Q1040.73 148.363 1042.62 150.145 Q1044.55 151.905 1044.55 155.076 Q1044.55 158.687 1041.68 160.793 Q1038.83 162.9 1033.83 162.9 Q1031.74 162.9 1029.48 162.483 Q1027.23 162.09 1024.73 161.28 L1024.73 156.881 Q1027.09 158.108 1029.38 158.733 Q1031.68 159.335 1033.92 159.335 Q1036.93 159.335 1038.55 158.317 Q1040.17 157.275 1040.17 155.4 Q1040.17 153.664 1038.99 152.738 Q1037.83 151.812 1033.87 150.956 L1032.39 150.608 Q1028.43 149.775 1026.68 148.062 Q1024.92 146.326 1024.92 143.317 Q1024.92 139.659 1027.51 137.669 Q1030.1 135.678 1034.87 135.678 Q1037.23 135.678 1039.31 136.025 Q1041.4 136.372 1043.16 137.067 Z" fill="#000000" fill-rule="evenodd" fill-opacity="1" /><path clip-path="url(#clip020)" d="M1073.5 148.201 L1073.5 150.284 L1053.92 150.284 Q1054.2 154.682 1056.56 156.997 Q1058.94 159.289 1063.18 159.289 Q1065.63 159.289 1067.93 158.687 Q1070.24 158.085 1072.51 156.881 L1072.51 160.909 Q1070.22 161.881 1067.81 162.391 Q1065.4 162.9 1062.93 162.9 Q1056.72 162.9 1053.09 159.289 Q1049.48 155.678 1049.48 149.52 Q1049.48 143.155 1052.9 139.428 Q1056.35 135.678 1062.18 135.678 Q1067.42 135.678 1070.45 139.057 Q1073.5 142.414 1073.5 148.201 M1069.24 146.951 Q1069.2 143.456 1067.28 141.372 Q1065.38 139.289 1062.23 139.289 Q1058.67 139.289 1056.51 141.303 Q1054.38 143.317 1054.06 146.974 L1069.24 146.951 Z" fill="#000000" fill-rule="evenodd" fill-opacity="1" /><path clip-path="url(#clip020)" d="M1084.71 128.942 L1084.71 136.303 L1093.48 136.303 L1093.48 139.613 L1084.71 139.613 L1084.71 153.687 Q1084.71 156.858 1085.56 157.761 Q1086.44 158.664 1089.11 158.664 L1093.48 158.664 L1093.48 162.229 L1089.11 162.229 Q1084.18 162.229 1082.3 160.4 Q1080.43 158.548 1080.43 153.687 L1080.43 139.613 L1077.3 139.613 L1077.3 136.303 L1080.43 136.303 L1080.43 128.942 L1084.71 128.942 Z" fill="#000000" fill-rule="evenodd" fill-opacity="1" /><path clip-path="url(#clip020)" d="
M355.449 217.525 L494.796 217.525 L494.796 176.053 L355.449 176.053 L355.449 217.525  Z
  " fill="#e26f46" fill-rule="evenodd" fill-opacity="0.1"/>
<polyline clip-path="url(#clip020)" style="stroke:#e26f46; stroke-linecap:butt; stroke-linejoin:round; stroke-width:4; stroke-opacity:1; fill:none" points="
  355.449,176.053 494.796,176.053 
  "/>
<path clip-path="url(#clip020)" d="M399.523 171.189 L399.523 222.389 L450.723 222.389 L450.723 171.189 L399.523 171.189 Z" fill="#e26f46" fill-rule="evenodd" fill-opacity="1" stroke="#000000" stroke-opacity="1" stroke-width="5.12"/>
<path clip-path="url(#clip020)" d="M538.368 193.12 Q539.965 190.249 542.187 188.884 Q544.409 187.518 547.419 187.518 Q551.47 187.518 553.669 190.365 Q555.868 193.189 555.868 198.421 L555.868 214.069 L551.585 214.069 L551.585 198.559 Q551.585 194.833 550.266 193.027 Q548.946 191.222 546.238 191.222 Q542.928 191.222 541.007 193.421 Q539.085 195.62 539.085 199.416 L539.085 214.069 L534.803 214.069 L534.803 198.559 Q534.803 194.809 533.484 193.027 Q532.164 191.222 529.41 191.222 Q526.146 191.222 524.224 193.444 Q522.303 195.643 522.303 199.416 L522.303 214.069 L518.021 214.069 L518.021 188.143 L522.303 188.143 L522.303 192.171 Q523.761 189.786 525.798 188.652 Q527.835 187.518 530.636 187.518 Q533.46 187.518 535.428 188.953 Q537.419 190.388 538.368 193.12 Z" fill="#000000" fill-rule="evenodd" fill-opacity="1" /><path clip-path="url(#clip020)" d="M564.363 188.143 L568.622 188.143 L568.622 214.069 L564.363 214.069 L564.363 188.143 M564.363 178.05 L568.622 178.05 L568.622 183.444 L564.363 183.444 L564.363 178.05 Z" fill="#000000" fill-rule="evenodd" fill-opacity="1" /><path clip-path="url(#clip020)" d="M599.085 198.421 L599.085 214.069 L594.826 214.069 L594.826 198.559 Q594.826 194.879 593.391 193.05 Q591.955 191.222 589.085 191.222 Q585.636 191.222 583.645 193.421 Q581.655 195.62 581.655 199.416 L581.655 214.069 L577.372 214.069 L577.372 188.143 L581.655 188.143 L581.655 192.171 Q583.182 189.833 585.243 188.675 Q587.326 187.518 590.034 187.518 Q594.502 187.518 596.793 190.296 Q599.085 193.05 599.085 198.421 Z" fill="#000000" fill-rule="evenodd" fill-opacity="1" /><path clip-path="url(#clip020)" d="M607.58 188.143 L611.84 188.143 L611.84 214.069 L607.58 214.069 L607.58 188.143 M607.58 178.05 L611.84 178.05 L611.84 183.444 L607.58 183.444 L607.58 178.05 Z" fill="#000000" fill-rule="evenodd" fill-opacity="1" /><path clip-path="url(#clip020)" d="M640.937 193.12 Q642.534 190.249 644.756 188.884 Q646.978 187.518 649.988 187.518 Q654.038 187.518 656.238 190.365 Q658.437 193.189 658.437 198.421 L658.437 214.069 L654.154 214.069 L654.154 198.559 Q654.154 194.833 652.835 193.027 Q651.515 191.222 648.807 191.222 Q645.497 191.222 643.576 193.421 Q641.654 195.62 641.654 199.416 L641.654 214.069 L637.372 214.069 L637.372 198.559 Q637.372 194.809 636.052 193.027 Q634.733 191.222 631.978 191.222 Q628.715 191.222 626.793 193.444 Q624.872 195.643 624.872 199.416 L624.872 214.069 L620.59 214.069 L620.59 188.143 L624.872 188.143 L624.872 192.171 Q626.33 189.786 628.367 188.652 Q630.404 187.518 633.205 187.518 Q636.029 187.518 637.997 188.953 Q639.988 190.388 640.937 193.12 Z" fill="#000000" fill-rule="evenodd" fill-opacity="1" /><path clip-path="url(#clip020)" d="M678.714 201.036 Q673.552 201.036 671.562 202.217 Q669.571 203.397 669.571 206.245 Q669.571 208.513 671.052 209.856 Q672.557 211.175 675.126 211.175 Q678.668 211.175 680.798 208.675 Q682.95 206.152 682.95 201.985 L682.95 201.036 L678.714 201.036 M687.21 199.277 L687.21 214.069 L682.95 214.069 L682.95 210.133 Q681.492 212.495 679.316 213.629 Q677.14 214.74 673.992 214.74 Q670.011 214.74 667.65 212.518 Q665.312 210.272 665.312 206.522 Q665.312 202.147 668.228 199.925 Q671.168 197.703 676.978 197.703 L682.95 197.703 L682.95 197.286 Q682.95 194.347 681.006 192.749 Q679.085 191.129 675.589 191.129 Q673.367 191.129 671.261 191.661 Q669.154 192.194 667.21 193.259 L667.21 189.323 Q669.548 188.421 671.747 187.981 Q673.946 187.518 676.029 187.518 Q681.654 187.518 684.432 190.434 Q687.21 193.351 687.21 199.277 Z" fill="#000000" fill-rule="evenodd" fill-opacity="1" /><path clip-path="url(#clip020)" d="M695.983 178.05 L700.242 178.05 L700.242 214.069 L695.983 214.069 L695.983 178.05 Z" fill="#000000" fill-rule="evenodd" fill-opacity="1" /><path clip-path="url(#clip020)" d="M740.751 188.907 L740.751 192.934 Q738.945 192.009 737.001 191.546 Q735.057 191.083 732.973 191.083 Q729.802 191.083 728.205 192.055 Q726.631 193.027 726.631 194.971 Q726.631 196.453 727.765 197.309 Q728.899 198.143 732.325 198.907 L733.783 199.231 Q738.32 200.203 740.219 201.985 Q742.14 203.745 742.14 206.916 Q742.14 210.527 739.269 212.633 Q736.422 214.74 731.422 214.74 Q729.339 214.74 727.07 214.323 Q724.825 213.93 722.325 213.12 L722.325 208.721 Q724.686 209.948 726.978 210.573 Q729.27 211.175 731.515 211.175 Q734.524 211.175 736.145 210.157 Q737.765 209.115 737.765 207.24 Q737.765 205.504 736.584 204.578 Q735.427 203.652 731.469 202.796 L729.987 202.448 Q726.029 201.615 724.27 199.902 Q722.51 198.166 722.51 195.157 Q722.51 191.499 725.103 189.509 Q727.695 187.518 732.464 187.518 Q734.825 187.518 736.908 187.865 Q738.992 188.212 740.751 188.907 Z" fill="#000000" fill-rule="evenodd" fill-opacity="1" /><path clip-path="url(#clip020)" d="M771.098 200.041 L771.098 202.124 L751.515 202.124 Q751.793 206.522 754.154 208.837 Q756.538 211.129 760.774 211.129 Q763.228 211.129 765.519 210.527 Q767.834 209.925 770.103 208.721 L770.103 212.749 Q767.811 213.721 765.404 214.231 Q762.996 214.74 760.519 214.74 Q754.316 214.74 750.681 211.129 Q747.07 207.518 747.07 201.36 Q747.07 194.995 750.496 191.268 Q753.945 187.518 759.779 187.518 Q765.01 187.518 768.042 190.897 Q771.098 194.254 771.098 200.041 M766.839 198.791 Q766.792 195.296 764.871 193.212 Q762.973 191.129 759.825 191.129 Q756.26 191.129 754.107 193.143 Q751.978 195.157 751.654 198.814 L766.839 198.791 Z" fill="#000000" fill-rule="evenodd" fill-opacity="1" /><path clip-path="url(#clip020)" d="M782.302 180.782 L782.302 188.143 L791.075 188.143 L791.075 191.453 L782.302 191.453 L782.302 205.527 Q782.302 208.698 783.158 209.601 Q784.038 210.504 786.7 210.504 L791.075 210.504 L791.075 214.069 L786.7 214.069 Q781.769 214.069 779.894 212.24 Q778.019 210.388 778.019 205.527 L778.019 191.453 L774.894 191.453 L774.894 188.143 L778.019 188.143 L778.019 180.782 L782.302 180.782 Z" fill="#000000" fill-rule="evenodd" fill-opacity="1" /><path clip-path="url(#clip020)" d="M821.792 191.129 Q818.366 191.129 816.376 193.814 Q814.385 196.476 814.385 201.129 Q814.385 205.782 816.352 208.467 Q818.343 211.129 821.792 211.129 Q825.195 211.129 827.186 208.444 Q829.176 205.758 829.176 201.129 Q829.176 196.522 827.186 193.837 Q825.195 191.129 821.792 191.129 M821.792 187.518 Q827.348 187.518 830.519 191.129 Q833.69 194.74 833.69 201.129 Q833.69 207.495 830.519 211.129 Q827.348 214.74 821.792 214.74 Q816.214 214.74 813.042 211.129 Q809.894 207.495 809.894 201.129 Q809.894 194.74 813.042 191.129 Q816.214 187.518 821.792 187.518 Z" fill="#000000" fill-rule="evenodd" fill-opacity="1" /><path clip-path="url(#clip020)" d="M853.875 178.05 L853.875 181.592 L849.801 181.592 Q847.51 181.592 846.607 182.518 Q845.727 183.444 845.727 185.851 L845.727 188.143 L852.741 188.143 L852.741 191.453 L845.727 191.453 L845.727 214.069 L841.445 214.069 L841.445 191.453 L837.371 191.453 L837.371 188.143 L841.445 188.143 L841.445 186.337 Q841.445 182.009 843.459 180.041 Q845.473 178.05 849.848 178.05 L853.875 178.05 Z" fill="#000000" fill-rule="evenodd" fill-opacity="1" /><path clip-path="url(#clip020)" d="M872.695 179.509 L894.546 179.509 L894.546 183.444 L877.371 183.444 L877.371 193.675 L893.829 193.675 L893.829 197.61 L877.371 197.61 L877.371 210.133 L894.963 210.133 L894.963 214.069 L872.695 214.069 L872.695 179.509 Z" fill="#000000" fill-rule="evenodd" fill-opacity="1" /><path clip-path="url(#clip020)" d="M902.648 179.509 L907.324 179.509 L907.324 214.069 L902.648 214.069 L902.648 179.509 Z" fill="#000000" fill-rule="evenodd" fill-opacity="1" /><path clip-path="url(#clip020)" d="M916.63 179.509 L923.597 179.509 L932.417 203.027 L941.282 179.509 L948.25 179.509 L948.25 214.069 L943.69 214.069 L943.69 183.722 L934.778 207.425 L930.079 207.425 L921.167 183.722 L921.167 214.069 L916.63 214.069 L916.63 179.509 Z" fill="#000000" fill-rule="evenodd" fill-opacity="1" /><path clip-path="url(#clip020)" d="M627.593 1396.82 L635.231 1396.82 L635.231 1370.46 L626.921 1372.12 L626.921 1367.86 L635.185 1366.2 L639.861 1366.2 L639.861 1396.82 L647.5 1396.82 L647.5 1400.76 L627.593 1400.76 L627.593 1396.82 Z" fill="#000000" fill-rule="evenodd" fill-opacity="1" /><path clip-path="url(#clip020)" d="M900.534 1377.81 Q897.386 1377.81 895.534 1379.96 Q893.706 1382.12 893.706 1385.87 Q893.706 1389.59 895.534 1391.77 Q897.386 1393.92 900.534 1393.92 Q903.683 1393.92 905.511 1391.77 Q907.363 1389.59 907.363 1385.87 Q907.363 1382.12 905.511 1379.96 Q903.683 1377.81 900.534 1377.81 M909.817 1363.16 L909.817 1367.42 Q908.058 1366.58 906.252 1366.14 Q904.47 1365.7 902.71 1365.7 Q898.081 1365.7 895.627 1368.83 Q893.197 1371.95 892.849 1378.27 Q894.215 1376.26 896.275 1375.2 Q898.335 1374.11 900.812 1374.11 Q906.021 1374.11 909.03 1377.28 Q912.062 1380.43 912.062 1385.87 Q912.062 1391.19 908.914 1394.41 Q905.766 1397.63 900.534 1397.63 Q894.539 1397.63 891.368 1393.04 Q888.197 1388.44 888.197 1379.71 Q888.197 1371.52 892.085 1366.65 Q895.974 1361.77 902.525 1361.77 Q904.284 1361.77 906.067 1362.12 Q907.872 1362.46 909.817 1363.16 Z" fill="#000000" fill-rule="evenodd" fill-opacity="1" /><path clip-path="url(#clip020)" d="M1141.58 1379.33 L1157.9 1379.33 L1157.9 1383.26 L1135.95 1383.26 L1135.95 1379.33 Q1138.62 1376.57 1143.2 1371.95 Q1147.81 1367.29 1148.99 1365.95 Q1151.23 1363.43 1152.11 1361.69 Q1153.01 1359.93 1153.01 1358.24 Q1153.01 1355.49 1151.07 1353.75 Q1149.15 1352.01 1146.05 1352.01 Q1143.85 1352.01 1141.39 1352.78 Q1138.96 1353.54 1136.18 1355.09 L1136.18 1350.37 Q1139.01 1349.24 1141.46 1348.66 Q1143.92 1348.08 1145.95 1348.08 Q1151.32 1348.08 1154.52 1350.76 Q1157.71 1353.45 1157.71 1357.94 Q1157.71 1360.07 1156.9 1361.99 Q1156.12 1363.89 1154.01 1366.48 Q1153.43 1367.15 1150.33 1370.37 Q1147.23 1373.57 1141.58 1379.33 Z" fill="#000000" fill-rule="evenodd" fill-opacity="1" /><path clip-path="url(#clip020)" d="M1180.56 1352.78 L1168.75 1371.23 L1180.56 1371.23 L1180.56 1352.78 M1179.33 1348.7 L1185.21 1348.7 L1185.21 1371.23 L1190.14 1371.23 L1190.14 1375.12 L1185.21 1375.12 L1185.21 1383.26 L1180.56 1383.26 L1180.56 1375.12 L1164.96 1375.12 L1164.96 1370.6 L1179.33 1348.7 Z" fill="#000000" fill-rule="evenodd" fill-opacity="1" /><path clip-path="url(#clip020)" d="M1410.84 1324.26 Q1407.51 1324.26 1405.59 1326.04 Q1403.69 1327.82 1403.69 1330.95 Q1403.69 1334.07 1405.59 1335.86 Q1407.51 1337.64 1410.84 1337.64 Q1414.17 1337.64 1416.09 1335.86 Q1418.02 1334.05 1418.02 1330.95 Q1418.02 1327.82 1416.09 1326.04 Q1414.2 1324.26 1410.84 1324.26 M1406.16 1322.27 Q1403.15 1321.53 1401.46 1319.47 Q1399.8 1317.41 1399.8 1314.45 Q1399.8 1310.3 1402.74 1307.89 Q1405.7 1305.49 1410.84 1305.49 Q1416 1305.49 1418.94 1307.89 Q1421.88 1310.3 1421.88 1314.45 Q1421.88 1317.41 1420.19 1319.47 Q1418.52 1321.53 1415.54 1322.27 Q1418.92 1323.06 1420.79 1325.35 Q1422.69 1327.64 1422.69 1330.95 Q1422.69 1335.97 1419.61 1338.66 Q1416.56 1341.34 1410.84 1341.34 Q1405.12 1341.34 1402.04 1338.66 Q1398.99 1335.97 1398.99 1330.95 Q1398.99 1327.64 1400.89 1325.35 Q1402.78 1323.06 1406.16 1322.27 M1404.45 1314.89 Q1404.45 1317.57 1406.12 1319.07 Q1407.81 1320.58 1410.84 1320.58 Q1413.85 1320.58 1415.54 1319.07 Q1417.25 1317.57 1417.25 1314.89 Q1417.25 1312.2 1415.54 1310.7 Q1413.85 1309.19 1410.84 1309.19 Q1407.81 1309.19 1406.12 1310.7 Q1404.45 1312.2 1404.45 1314.89 Z" fill="#000000" fill-rule="evenodd" fill-opacity="1" /><path clip-path="url(#clip020)" d="M1441 1309.19 Q1437.39 1309.19 1435.56 1312.76 Q1433.76 1316.3 1433.76 1323.43 Q1433.76 1330.53 1435.56 1334.1 Q1437.39 1337.64 1441 1337.64 Q1444.64 1337.64 1446.44 1334.1 Q1448.27 1330.53 1448.27 1323.43 Q1448.27 1316.3 1446.44 1312.76 Q1444.64 1309.19 1441 1309.19 M1441 1305.49 Q1446.81 1305.49 1449.87 1310.09 Q1452.95 1314.68 1452.95 1323.43 Q1452.95 1332.15 1449.87 1336.76 Q1446.81 1341.34 1441 1341.34 Q1435.19 1341.34 1432.11 1336.76 Q1429.06 1332.15 1429.06 1323.43 Q1429.06 1314.68 1432.11 1310.09 Q1435.19 1305.49 1441 1305.49 Z" fill="#000000" fill-rule="evenodd" fill-opacity="1" /><path clip-path="url(#clip020)" d="M1652.58 1215.04 L1668.9 1215.04 L1668.9 1218.98 L1646.95 1218.98 L1646.95 1215.04 Q1649.62 1212.29 1654.2 1207.66 Q1658.81 1203.01 1659.99 1201.66 Q1662.23 1199.14 1663.11 1197.41 Q1664.01 1195.65 1664.01 1193.96 Q1664.01 1191.2 1662.07 1189.47 Q1660.15 1187.73 1657.05 1187.73 Q1654.85 1187.73 1652.39 1188.49 Q1649.96 1189.26 1647.18 1190.81 L1647.18 1186.09 Q1650.01 1184.95 1652.46 1184.37 Q1654.92 1183.79 1656.95 1183.79 Q1662.32 1183.79 1665.52 1186.48 Q1668.71 1189.16 1668.71 1193.66 Q1668.71 1195.79 1667.9 1197.71 Q1667.12 1199.6 1665.01 1202.2 Q1664.43 1202.87 1661.33 1206.09 Q1658.23 1209.28 1652.58 1215.04 Z" fill="#000000" fill-rule="evenodd" fill-opacity="1" /><path clip-path="url(#clip020)" d="M1691.56 1188.49 L1679.75 1206.94 L1691.56 1206.94 L1691.56 1188.49 M1690.33 1184.42 L1696.21 1184.42 L1696.21 1206.94 L1701.14 1206.94 L1701.14 1210.83 L1696.21 1210.83 L1696.21 1218.98 L1691.56 1218.98 L1691.56 1210.83 L1675.96 1210.83 L1675.96 1206.32 L1690.33 1184.42 Z" fill="#000000" fill-rule="evenodd" fill-opacity="1" /><path clip-path="url(#clip020)" d="M1718.87 1187.5 Q1715.26 1187.5 1713.43 1191.06 Q1711.63 1194.6 1711.63 1201.73 Q1711.63 1208.84 1713.43 1212.41 Q1715.26 1215.95 1718.87 1215.95 Q1722.51 1215.95 1724.31 1212.41 Q1726.14 1208.84 1726.14 1201.73 Q1726.14 1194.6 1724.31 1191.06 Q1722.51 1187.5 1718.87 1187.5 M1718.87 1183.79 Q1724.68 1183.79 1727.74 1188.4 Q1730.82 1192.98 1730.82 1201.73 Q1730.82 1210.46 1727.74 1215.07 Q1724.68 1219.65 1718.87 1219.65 Q1713.06 1219.65 1709.99 1215.07 Q1706.93 1210.46 1706.93 1201.73 Q1706.93 1192.98 1709.99 1188.4 Q1713.06 1183.79 1718.87 1183.79 Z" fill="#000000" fill-rule="evenodd" fill-opacity="1" /><path clip-path="url(#clip020)" d="M1922.93 871.267 Q1919.78 871.267 1917.93 873.419 Q1916.1 875.572 1916.1 879.322 Q1916.1 883.049 1917.93 885.225 Q1919.78 887.378 1922.93 887.378 Q1926.08 887.378 1927.9 885.225 Q1929.76 883.049 1929.76 879.322 Q1929.76 875.572 1927.9 873.419 Q1926.08 871.267 1922.93 871.267 M1932.21 856.614 L1932.21 860.873 Q1930.45 860.04 1928.65 859.6 Q1926.86 859.16 1925.1 859.16 Q1920.47 859.16 1918.02 862.285 Q1915.59 865.41 1915.24 871.73 Q1916.61 869.716 1918.67 868.651 Q1920.73 867.563 1923.21 867.563 Q1928.41 867.563 1931.42 870.734 Q1934.46 873.882 1934.46 879.322 Q1934.46 884.646 1931.31 887.864 Q1928.16 891.081 1922.93 891.081 Q1916.93 891.081 1913.76 886.498 Q1910.59 881.892 1910.59 873.165 Q1910.59 864.97 1914.48 860.109 Q1918.37 855.225 1924.92 855.225 Q1926.68 855.225 1928.46 855.572 Q1930.27 855.92 1932.21 856.614 Z" fill="#000000" fill-rule="evenodd" fill-opacity="1" /><path clip-path="url(#clip020)" d="M1941.33 855.85 L1963.55 855.85 L1963.55 857.841 L1951.01 890.41 L1946.12 890.41 L1957.93 859.785 L1941.33 859.785 L1941.33 855.85 Z" fill="#000000" fill-rule="evenodd" fill-opacity="1" /><path clip-path="url(#clip020)" d="M1976.7 886.475 L1993.02 886.475 L1993.02 890.41 L1971.08 890.41 L1971.08 886.475 Q1973.74 883.72 1978.32 879.091 Q1982.93 874.438 1984.11 873.095 Q1986.35 870.572 1987.23 868.836 Q1988.14 867.077 1988.14 865.387 Q1988.14 862.632 1986.19 860.896 Q1984.27 859.16 1981.17 859.16 Q1978.97 859.16 1976.52 859.924 Q1974.08 860.688 1971.31 862.239 L1971.31 857.517 Q1974.13 856.382 1976.58 855.804 Q1979.04 855.225 1981.08 855.225 Q1986.45 855.225 1989.64 857.91 Q1992.83 860.595 1992.83 865.086 Q1992.83 867.216 1992.02 869.137 Q1991.24 871.035 1989.13 873.628 Q1988.55 874.299 1985.45 877.517 Q1982.35 880.711 1976.7 886.475 Z" fill="#000000" fill-rule="evenodd" fill-opacity="1" /><path clip-path="url(#clip020)" d="M2160.05 34.6279 L2167.69 34.6279 L2167.69 8.26228 L2159.38 9.92894 L2159.38 5.6697 L2167.64 4.00304 L2172.32 4.00304 L2172.32 34.6279 L2179.96 34.6279 L2179.96 38.563 L2160.05 38.563 L2160.05 34.6279 Z" fill="#000000" fill-rule="evenodd" fill-opacity="1" /><path clip-path="url(#clip020)" d="M2188.22 4.00304 L2210.44 4.00304 L2210.44 5.99377 L2197.89 38.563 L2193.01 38.563 L2204.82 7.93821 L2188.22 7.93821 L2188.22 4.00304 Z" fill="#000000" fill-rule="evenodd" fill-opacity="1" /><path clip-path="url(#clip020)" d="M2219.7 37.8455 L2219.7 33.5862 Q2221.46 34.4195 2223.27 34.8594 Q2225.07 35.2992 2226.81 35.2992 Q2231.44 35.2992 2233.87 32.1973 Q2236.32 29.0724 2236.67 22.7298 Q2235.33 24.7205 2233.27 25.7853 Q2231.2 26.8501 2228.7 26.8501 Q2223.52 26.8501 2220.49 23.7252 Q2217.48 20.577 2217.48 15.1372 Q2217.48 9.8132 2220.63 6.59562 Q2223.77 3.37805 2229.01 3.37805 Q2235 3.37805 2238.15 7.9845 Q2241.32 12.5678 2241.32 21.3178 Q2241.32 29.489 2237.43 34.3733 Q2233.57 39.2343 2227.02 39.2343 Q2225.26 39.2343 2223.45 38.8871 Q2221.64 38.5399 2219.7 37.8455 M2229.01 23.1928 Q2232.15 23.1928 2233.98 21.04 Q2235.83 18.8872 2235.83 15.1372 Q2235.83 11.4104 2233.98 9.25764 Q2232.15 7.08173 2229.01 7.08173 Q2225.86 7.08173 2224.01 9.25764 Q2222.18 11.4104 2222.18 15.1372 Q2222.18 18.8872 2224.01 21.04 Q2225.86 23.1928 2229.01 23.1928 Z" fill="#000000" fill-rule="evenodd" fill-opacity="1" /><path clip-path="url(#clip020)" d="M2253.75 34.6279 L2270.07 34.6279 L2270.07 38.563 L2248.13 38.563 L2248.13 34.6279 Q2250.79 31.8733 2255.37 27.2437 Q2259.98 22.5909 2261.16 21.2483 Q2263.4 18.7252 2264.28 16.9891 Q2265.19 15.2298 2265.19 13.54 Q2265.19 10.7854 2263.24 9.04931 Q2261.32 7.31321 2258.22 7.31321 Q2256.02 7.31321 2253.57 8.07709 Q2251.14 8.84098 2248.36 10.3919 L2248.36 5.6697 Q2251.18 4.53545 2253.64 3.95675 Q2256.09 3.37805 2258.13 3.37805 Q2263.5 3.37805 2266.69 6.06322 Q2269.89 8.74839 2269.89 13.2391 Q2269.89 15.3687 2269.08 17.29 Q2268.29 19.1881 2266.18 21.7807 Q2265.6 22.452 2262.5 25.6696 Q2259.4 28.864 2253.75 34.6279 Z" fill="#000000" fill-rule="evenodd" fill-opacity="1" /><path clip-path="url(#clip020)" d="M653.884 1396.86 L661.523 1396.86 L661.523 1370.49 L653.213 1372.16 L653.213 1367.9 L661.477 1366.23 L666.153 1366.23 L666.153 1396.86 L673.792 1396.86 L673.792 1400.79 L653.884 1400.79 L653.884 1396.86 Z" fill="#000000" fill-rule="evenodd" fill-opacity="1" /><path clip-path="url(#clip020)" d="M916.699 1363.34 L935.055 1363.34 L935.055 1367.27 L920.981 1367.27 L920.981 1375.74 Q922 1375.4 923.019 1375.23 Q924.037 1375.05 925.056 1375.05 Q930.843 1375.05 934.222 1378.22 Q937.602 1381.39 937.602 1386.81 Q937.602 1392.39 934.13 1395.49 Q930.657 1398.57 924.338 1398.57 Q922.162 1398.57 919.894 1398.2 Q917.648 1397.83 915.241 1397.09 L915.241 1392.39 Q917.324 1393.52 919.546 1394.08 Q921.769 1394.63 924.245 1394.63 Q928.25 1394.63 930.588 1392.53 Q932.926 1390.42 932.926 1386.81 Q932.926 1383.2 930.588 1381.09 Q928.25 1378.98 924.245 1378.98 Q922.37 1378.98 920.495 1379.4 Q918.644 1379.82 916.699 1380.7 L916.699 1363.34 Z" fill="#000000" fill-rule="evenodd" fill-opacity="1" /><path clip-path="url(#clip020)" d="M1164.07 1384.54 L1171.71 1384.54 L1171.71 1358.18 L1163.4 1359.85 L1163.4 1355.59 L1171.67 1353.92 L1176.34 1353.92 L1176.34 1384.54 L1183.98 1384.54 L1183.98 1388.48 L1164.07 1388.48 L1164.07 1384.54 Z" fill="#000000" fill-rule="evenodd" fill-opacity="1" /><path clip-path="url(#clip020)" d="M1203.43 1372.07 Q1200.09 1372.07 1198.17 1373.85 Q1196.27 1375.63 1196.27 1378.76 Q1196.27 1381.88 1198.17 1383.67 Q1200.09 1385.45 1203.43 1385.45 Q1206.76 1385.45 1208.68 1383.67 Q1210.6 1381.86 1210.6 1378.76 Q1210.6 1375.63 1208.68 1373.85 Q1206.78 1372.07 1203.43 1372.07 M1198.75 1370.08 Q1195.74 1369.34 1194.05 1367.28 Q1192.38 1365.22 1192.38 1362.25 Q1192.38 1358.11 1195.32 1355.7 Q1198.29 1353.29 1203.43 1353.29 Q1208.59 1353.29 1211.53 1355.7 Q1214.47 1358.11 1214.47 1362.25 Q1214.47 1365.22 1212.78 1367.28 Q1211.11 1369.34 1208.12 1370.08 Q1211.5 1370.86 1213.38 1373.16 Q1215.28 1375.45 1215.28 1378.76 Q1215.28 1383.78 1212.2 1386.47 Q1209.14 1389.15 1203.43 1389.15 Q1197.71 1389.15 1194.63 1386.47 Q1191.57 1383.78 1191.57 1378.76 Q1191.57 1375.45 1193.47 1373.16 Q1195.37 1370.86 1198.75 1370.08 M1197.04 1362.69 Q1197.04 1365.38 1198.7 1366.88 Q1200.39 1368.39 1203.43 1368.39 Q1206.43 1368.39 1208.12 1366.88 Q1209.84 1365.38 1209.84 1362.69 Q1209.84 1360.01 1208.12 1358.5 Q1206.43 1357 1203.43 1357 Q1200.39 1357 1198.7 1358.5 Q1197.04 1360.01 1197.04 1362.69 Z" fill="#000000" fill-rule="evenodd" fill-opacity="1" /><path clip-path="url(#clip020)" d="M1426.88 1326.39 L1445.23 1326.39 L1445.23 1330.33 L1431.16 1330.33 L1431.16 1338.8 Q1432.18 1338.45 1433.2 1338.29 Q1434.22 1338.11 1435.23 1338.11 Q1441.02 1338.11 1444.4 1341.28 Q1447.78 1344.45 1447.78 1349.87 Q1447.78 1355.44 1444.31 1358.55 Q1440.84 1361.63 1434.52 1361.63 Q1432.34 1361.63 1430.07 1361.26 Q1427.83 1360.88 1425.42 1360.14 L1425.42 1355.44 Q1427.5 1356.58 1429.72 1357.13 Q1431.95 1357.69 1434.42 1357.69 Q1438.43 1357.69 1440.77 1355.58 Q1443.1 1353.48 1443.1 1349.87 Q1443.1 1346.26 1440.77 1344.15 Q1438.43 1342.04 1434.42 1342.04 Q1432.55 1342.04 1430.67 1342.46 Q1428.82 1342.88 1426.88 1343.76 L1426.88 1326.39 Z" fill="#000000" fill-rule="evenodd" fill-opacity="1" /><path clip-path="url(#clip020)" d="M1467.57 1341.81 Q1464.42 1341.81 1462.57 1343.96 Q1460.74 1346.12 1460.74 1349.87 Q1460.74 1353.59 1462.57 1355.77 Q1464.42 1357.92 1467.57 1357.92 Q1470.72 1357.92 1472.55 1355.77 Q1474.4 1353.59 1474.4 1349.87 Q1474.4 1346.12 1472.55 1343.96 Q1470.72 1341.81 1467.57 1341.81 M1476.85 1327.16 L1476.85 1331.42 Q1475.09 1330.58 1473.29 1330.14 Q1471.51 1329.7 1469.75 1329.7 Q1465.12 1329.7 1462.66 1332.83 Q1460.23 1335.95 1459.89 1342.27 Q1461.25 1340.26 1463.31 1339.19 Q1465.37 1338.11 1467.85 1338.11 Q1473.06 1338.11 1476.07 1341.28 Q1479.1 1344.43 1479.1 1349.87 Q1479.1 1355.19 1475.95 1358.41 Q1472.8 1361.63 1467.57 1361.63 Q1461.58 1361.63 1458.4 1357.04 Q1455.23 1352.44 1455.23 1343.71 Q1455.23 1335.51 1459.12 1330.65 Q1463.01 1325.77 1469.56 1325.77 Q1471.32 1325.77 1473.1 1326.12 Q1474.91 1326.46 1476.85 1327.16 Z" fill="#000000" fill-rule="evenodd" fill-opacity="1" /><path clip-path="url(#clip020)" d="M1674.78 1281.69 L1682.42 1281.69 L1682.42 1255.32 L1674.11 1256.99 L1674.11 1252.73 L1682.38 1251.06 L1687.05 1251.06 L1687.05 1281.69 L1694.69 1281.69 L1694.69 1285.62 L1674.78 1285.62 L1674.78 1281.69 Z" fill="#000000" fill-rule="evenodd" fill-opacity="1" /><path clip-path="url(#clip020)" d="M1714.71 1266.48 Q1711.57 1266.48 1709.71 1268.63 Q1707.89 1270.78 1707.89 1274.53 Q1707.89 1278.26 1709.71 1280.44 Q1711.57 1282.59 1714.71 1282.59 Q1717.86 1282.59 1719.69 1280.44 Q1721.54 1278.26 1721.54 1274.53 Q1721.54 1270.78 1719.69 1268.63 Q1717.86 1266.48 1714.71 1266.48 M1724 1251.82 L1724 1256.08 Q1722.24 1255.25 1720.43 1254.81 Q1718.65 1254.37 1716.89 1254.37 Q1712.26 1254.37 1709.81 1257.5 Q1707.38 1260.62 1707.03 1266.94 Q1708.4 1264.93 1710.46 1263.86 Q1712.52 1262.77 1714.99 1262.77 Q1720.2 1262.77 1723.21 1265.94 Q1726.24 1269.09 1726.24 1274.53 Q1726.24 1279.86 1723.09 1283.07 Q1719.95 1286.29 1714.71 1286.29 Q1708.72 1286.29 1705.55 1281.71 Q1702.38 1277.1 1702.38 1268.38 Q1702.38 1260.18 1706.27 1255.32 Q1710.15 1250.44 1716.71 1250.44 Q1718.46 1250.44 1720.25 1250.78 Q1722.05 1251.13 1724 1251.82 Z" fill="#000000" fill-rule="evenodd" fill-opacity="1" /><path clip-path="url(#clip020)" d="M1744.3 1254.14 Q1740.69 1254.14 1738.86 1257.7 Q1737.05 1261.25 1737.05 1268.38 Q1737.05 1275.48 1738.86 1279.05 Q1740.69 1282.59 1744.3 1282.59 Q1747.93 1282.59 1749.74 1279.05 Q1751.57 1275.48 1751.57 1268.38 Q1751.57 1261.25 1749.74 1257.7 Q1747.93 1254.14 1744.3 1254.14 M1744.3 1250.44 Q1750.11 1250.44 1753.16 1255.04 Q1756.24 1259.63 1756.24 1268.38 Q1756.24 1277.1 1753.16 1281.71 Q1750.11 1286.29 1744.3 1286.29 Q1738.49 1286.29 1735.41 1281.71 Q1732.35 1277.1 1732.35 1268.38 Q1732.35 1259.63 1735.41 1255.04 Q1738.49 1250.44 1744.3 1250.44 Z" fill="#000000" fill-rule="evenodd" fill-opacity="1" /><path clip-path="url(#clip020)" d="M1951.99 1058.11 L1940.18 1076.56 L1951.99 1076.56 L1951.99 1058.11 M1950.76 1054.03 L1956.64 1054.03 L1956.64 1076.56 L1961.57 1076.56 L1961.57 1080.45 L1956.64 1080.45 L1956.64 1088.59 L1951.99 1088.59 L1951.99 1080.45 L1936.38 1080.45 L1936.38 1075.93 L1950.76 1054.03 Z" fill="#000000" fill-rule="evenodd" fill-opacity="1" /><path clip-path="url(#clip020)" d="M1983.47 1069.96 Q1986.82 1070.68 1988.7 1072.95 Q1990.6 1075.22 1990.6 1078.55 Q1990.6 1083.66 1987.08 1086.47 Q1983.56 1089.27 1977.08 1089.27 Q1974.9 1089.27 1972.59 1088.83 Q1970.3 1088.41 1967.84 1087.55 L1967.84 1083.04 Q1969.79 1084.17 1972.1 1084.75 Q1974.42 1085.33 1976.94 1085.33 Q1981.34 1085.33 1983.63 1083.59 Q1985.94 1081.86 1985.94 1078.55 Q1985.94 1075.49 1983.79 1073.78 Q1981.66 1072.04 1977.84 1072.04 L1973.81 1072.04 L1973.81 1068.2 L1978.03 1068.2 Q1981.48 1068.2 1983.3 1066.84 Q1985.13 1065.45 1985.13 1062.85 Q1985.13 1060.19 1983.24 1058.78 Q1981.36 1057.35 1977.84 1057.35 Q1975.92 1057.35 1973.72 1057.76 Q1971.52 1058.18 1968.88 1059.06 L1968.88 1054.89 Q1971.55 1054.15 1973.86 1053.78 Q1976.2 1053.41 1978.26 1053.41 Q1983.58 1053.41 1986.68 1055.84 Q1989.79 1058.25 1989.79 1062.37 Q1989.79 1065.24 1988.14 1067.23 Q1986.5 1069.2 1983.47 1069.96 Z" fill="#000000" fill-rule="evenodd" fill-opacity="1" /><path clip-path="url(#clip020)" d="M2003.49 1084.66 L2019.81 1084.66 L2019.81 1088.59 L1997.86 1088.59 L1997.86 1084.66 Q2000.53 1081.91 2005.11 1077.28 Q2009.72 1072.62 2010.9 1071.28 Q2013.14 1068.76 2014.02 1067.02 Q2014.93 1065.26 2014.93 1063.57 Q2014.93 1060.82 2012.98 1059.08 Q2011.06 1057.35 2007.96 1057.35 Q2005.76 1057.35 2003.3 1058.11 Q2000.87 1058.87 1998.1 1060.42 L1998.1 1055.7 Q2000.92 1054.57 2003.37 1053.99 Q2005.83 1053.41 2007.86 1053.41 Q2013.24 1053.41 2016.43 1056.1 Q2019.62 1058.78 2019.62 1063.27 Q2019.62 1065.4 2018.81 1067.32 Q2018.03 1069.22 2015.92 1071.81 Q2015.34 1072.48 2012.24 1075.7 Q2009.14 1078.9 2003.49 1084.66 Z" fill="#000000" fill-rule="evenodd" fill-opacity="1" /><path clip-path="url(#clip020)" d="M2185.54 586.3 L2193.18 586.3 L2193.18 559.935 L2184.87 561.601 L2184.87 557.342 L2193.13 555.675 L2197.81 555.675 L2197.81 586.3 L2205.45 586.3 L2205.45 590.235 L2185.54 590.235 L2185.54 586.3 Z" fill="#000000" fill-rule="evenodd" fill-opacity="1" /><path clip-path="url(#clip020)" d="M2215.7 586.3 L2223.34 586.3 L2223.34 559.935 L2215.03 561.601 L2215.03 557.342 L2223.3 555.675 L2227.97 555.675 L2227.97 586.3 L2235.61 586.3 L2235.61 590.235 L2215.7 590.235 L2215.7 586.3 Z" fill="#000000" fill-rule="evenodd" fill-opacity="1" /><path clip-path="url(#clip020)" d="M2249.08 586.3 L2265.4 586.3 L2265.4 590.235 L2243.46 590.235 L2243.46 586.3 Q2246.12 583.546 2250.7 578.916 Q2255.31 574.263 2256.49 572.921 Q2258.74 570.398 2259.61 568.661 Q2260.52 566.902 2260.52 565.212 Q2260.52 562.458 2258.57 560.722 Q2256.65 558.986 2253.55 558.986 Q2251.35 558.986 2248.9 559.749 Q2246.47 560.513 2243.69 562.064 L2243.69 557.342 Q2246.51 556.208 2248.97 555.629 Q2251.42 555.05 2253.46 555.05 Q2258.83 555.05 2262.02 557.736 Q2265.22 560.421 2265.22 564.911 Q2265.22 567.041 2264.41 568.962 Q2263.62 570.86 2261.51 573.453 Q2260.93 574.124 2257.83 577.342 Q2254.73 580.536 2249.08 586.3 Z" fill="#000000" fill-rule="evenodd" fill-opacity="1" /><path clip-path="url(#clip020)" d="M2285.22 558.754 Q2281.61 558.754 2279.78 562.319 Q2277.97 565.861 2277.97 572.99 Q2277.97 580.097 2279.78 583.661 Q2281.61 587.203 2285.22 587.203 Q2288.85 587.203 2290.66 583.661 Q2292.49 580.097 2292.49 572.99 Q2292.49 565.861 2290.66 562.319 Q2288.85 558.754 2285.22 558.754 M2285.22 555.05 Q2291.03 555.05 2294.08 559.657 Q2297.16 564.24 2297.16 572.99 Q2297.16 581.717 2294.08 586.323 Q2291.03 590.907 2285.22 590.907 Q2279.41 590.907 2276.33 586.323 Q2273.27 581.717 2273.27 572.99 Q2273.27 564.24 2276.33 559.657 Q2279.41 555.05 2285.22 555.05 Z" fill="#000000" fill-rule="evenodd" fill-opacity="1" /></svg>
